<?xml version="1.0" encoding="UTF-8"?>
<svg enable-background="new 1161.938 -147.362 1114.602 1683.077" version="1.1" viewBox="1161.938 -147.362 1114.602 1683.077" xmlns="http://www.w3.org/2000/svg">
 <path d="m1703.1-94.932c15.1-7.3 32.199-13.2 49.199-10 10.6 2.5 16.5 12.7 21.999 21.199-1.6-0.8-3.2-1.5-4.7-2.3 2.4 12.3 8.5 23.899 7.5 36.699-0.7 9.1-1.6 19.099-7.4 26.499-4.3 5.6-13 6.4-18.4 2.1-7-5-8.2-14.2-10.6-21.799-2.1 6.4-2.8 13.7-7 19.099-3.2 3.7-8.8 2.4-12.4 0.1-8.2-4.8-10.9-14.6-17.2-21.299-1 14.8 0.7 29.799-2.5 44.399-0.7 3-2 6.6-5.4 7.3-3.9-0.3-6.8-3.2-9.4-5.8-8.3-8.9-14.7-19.299-22.699-28.499-7.5 6.6-14.6 14.4-24.499 17.2-14.5 4.7-30.099 4.6-44.799 1.1-9.8-1.7-19-5.6-28.899-6.6-5.9-0.7-11.4 1.8-16.3 4.7-11.8 6.9-23.699 14.5-31.999 25.599-2.7-0.1-5.4 0-8.1 0 5.6-13.5 10.2-27.699 19.099-39.499 6.8-9 18.4-12.2 28.999-13.9-6.3 4.7-13.6 8.2-19.4 13.5-7 6.7-13.9 14.3-16.2 23.999 8.1-4.7 15-11.2 23.399-15.3 20.6-10.5 43.899-14.8 66.898-17.8 4.4-0.5 8.7-2.1 12.5-4.4-9.2-1-18.5-0.2-27.699-1.2-8.1-0.8-16.3-1.5-24.499-1.6 12.7-3.7 26.399 0.2 38.599-5.1 7.5-3.2 14.7-6.9 21.999-10.6 23.503-12.398 46.903-24.798 69.902-37.797z" fill="#58595B" stroke="#58595B" stroke-width=".7382"/>
 <path d="m1769.5-86.033c1.6 0.8 3.1 1.5 4.7 2.3 16.4 31.299 27.899 64.898 44.099 96.297 6.7 13.8 14.8 27.199 25.999 37.799 18.199 18.4 43.499 29.199 69.198 30.999-3.1 12.8-14.3 21.399-25.399 27.199-10.4 5.3-22.399 1.8-32.899-1.1-24.399-8.8-46.699-22.199-68.198-36.599-6.6-4.6-14.9-4.7-22.299-7.5-11.3-4.3-20.9-12.2-28.999-20.999-3.6 2.7-7.2 5.3-10.8 7.9-1.1-0.4-2.2-0.8-3.3-1.1 3-3.5 6.6-7 7.5-11.7 0.9-4.3 0.9-8.8 1.3-13.1 8.1 7 9.9 18.7 18.3 25.299 5 4.2 10.5 7.8 16.599 10.2 6.2 2.3 13.3 1.4 19 5.1 18.8 13 40.299 21.199 60.498 31.599 10 4.5 20.599 10.8 32.099 8.1 8.2-1.2 14.9-6.9 18.3-14.4-12.1 4.7-25.099 2.2-37.699 2.1-12.7-0.5-24.599-6-35.199-12.8-16.599-9.8-32.899-20.499-46.499-34.299-8.1-9.1-16.9-18-21.599-29.499-4.2-7.9-5.4-17-9.9-24.699-3.2 4.6-5 9.9-7 15.1-0.1-8.7 0.8-17.4 1.2-26.099-5.6 3.3-11.7 5.9-18.3 5.3 1.6 5.8 3.1 11.6 4.6 17.4-2.1-1.9-4.2-3.9-6.2-5.8-1.8 8.4-3.3 17.3-8.4 24.499-5.4 7.9-14.2 12.4-21.299 18.5-2.8-0.6-5.6-1-8.4-1.5-9.8-1.8-19.4-4.4-29.299-6-16-4.3-32.499-6.8-48.899-7.9-3.4-0.4-6.8-0.7-10.2-0.9-0.1-0.3-0.2-0.9-0.3-1.3-24.899-2.2-49.699-6.1-74.598-7.4 8.3-11.1 20.2-18.6 31.999-25.599 4.9-2.9 10.5-5.4 16.3-4.7 9.9 1 19.099 4.9 28.899 6.6 14.7 3.5 30.299 3.6 44.799-1.1 9.9-2.8 17-10.6 24.499-17.2 8 9.1 14.4 19.599 22.699 28.499 2.6 2.6 5.5 5.5 9.4 5.8 3.4-0.7 4.7-4.3 5.4-7.3 3.5-14.7 1.8-29.699 2.8-44.499 6.3 6.6 8.9 16.5 17.199 21.299 3.7 2.2 9.2 3.6 12.4-0.1 4.2-5.5 4.9-12.7 7-19.099 2.4 7.6 3.5 16.8 10.6 21.799 5.4 4.3 14.2 3.5 18.4-2.1 5.8-7.5 6.7-17.4 7.4-26.499 1.099-12.898-5.101-24.498-7.501-36.798z" fill="#404040" stroke="#404040" stroke-width=".7382"/>
 <path d="m1557.3-38.634c4.8-2.3 10.2-2.4 15.4-2.7 8.2 0.1 16.4 0.8 24.499 1.6 9.2 0.9 18.5 0.1 27.699 1.2-3.9 2.2-8.1 3.9-12.5 4.4-22.999 2.9-46.299 7.3-67.198 17.8-8.4 4.1-15.3 10.6-23.399 15.3 2.3-9.7 9.2-17.3 16.2-23.999 5.699-5.401 12.899-8.901 19.299-13.601z" fill="#707273" stroke="#707273" stroke-width=".7382"/>
 <path d="m1720.4-14.735c6.6 0.6 12.7-2.1 18.3-5.3-0.4 8.7-1.3 17.4-1.2 26.099 2-5.2 3.8-10.5 7-15.1 4.6 7.7 5.8 16.8 9.9 24.699 4.7 11.5 13.5 20.399 21.599 29.499 13.6 13.8 29.899 24.499 46.499 34.299 10.5 6.8 22.499 12.3 35.199 12.8 12.6 0.2 25.599 2.7 37.699-2.1-3.4 7.4-10.1 13.2-18.3 14.4-11.5 2.6-21.999-3.6-32.099-8.1-20.199-10.4-41.699-18.6-60.498-31.599-5.7-3.7-12.8-2.8-19-5.1-6.1-2.3-11.7-6-16.599-10.2-8.5-6.7-10.2-18.3-18.3-25.299-0.4 4.4-0.4 8.8-1.3 13.1-0.9 4.7-4.5 8.2-7.5 11.7-10.8-3.5-21.9-6-32.699-9.2 7.1-6.1 15.9-10.5 21.299-18.5 5-7.2 6.6-16.1 8.4-24.499 2.1 1.9 4.1 3.9 6.2 5.8-1.501-5.799-3-11.599-4.6-17.399z" fill="#373737" stroke="#373737" stroke-width=".7382"/>
 <path d="m1490.5 18.265c5.7-3.4 12.4-3.4 18.799-3.5 2.7 0 5.4-0.1 8.1 0 24.999 1.4 49.699 5.2 74.598 7.4 0.1 0.3 0.2 0.9 0.3 1.3 3.4 0.2 6.8 0.5 10.2 0.9 5.2 1.2 10.4 2.5 15.7 3.1 11.1 1.3 21.999 4.1 33.199 4.8 9.8 1.6 19.5 4.2 29.299 6 3.8 3.3 7.8 7.5 7.9 12.9-0.2 4.4-2.9 9-7 10.6-5.1 1.2-10.4 0.4-15.599 0-16.3-1.8-32.599-3.4-48.999-3.7-12.3-3.5-25.099-4.9-37.699-7.5-8.7-1.8-17.5-3.3-26.399-3.5-19.099-2.9-38.099-6.3-57.399-7.6-9.4-2-19.199-0.3-28.499-3 7.2 0.5 14.7 0.5 21.599-1.7 24.099-8 49.899-6.2 74.998-7.1-6.6-2.3-13.5-3.6-20.299-4.8-10.8-1.9-21.499-5.1-32.599-4.5-9.2 0.6-18.5 2.8-26.399 7.8-3.9 2.5-8.1 4.6-12.4 6.5 4.599-6.601 11.799-10.501 18.599-14.4z" fill="#F9AF41" stroke="#F9AF41" stroke-width=".7382"/>
 <path d="m1484.3 26.264c7.9-5 17.2-7.2 26.399-7.8 11.1-0.7 21.799 2.5 32.599 4.5 6.9 1.2 13.7 2.5 20.299 4.8-24.999 0.9-50.799-1-74.998 7.1-7 2.3-14.4 2.2-21.599 1.7l-1.1-0.3 6-3.6c4.3-1.9 8.5-3.9 12.4-6.4z" fill="#FDD46A" stroke="#FDD46A" stroke-width=".7382"/>
 <path d="m1602.4 24.364c16.5 1.1 32.999 3.7 48.899 7.9-11.2-0.8-22.099-3.5-33.199-4.8-5.301-0.6-10.501-1.8-15.7-3.1z" fill="#9B773E" stroke="#9B773E" stroke-width=".7382"/>
 <path d="m1445.6 41.164c6.9-0.7 13.9-2 20.299-4.9l1.1 0.3c9.2 2.7 19.099 1 28.499 3-11.4 0-22.899-1.3-34.099 1.6 7.8 2.1 15.8 3 23.799 4.3 0.9 1 1.8 2.1 2.7 3.2-24.899 1.8-49.599 6.4-73.398 14.1-28.999 9.1-56.399 22.299-83.698 35.299-12.7 7.3-26.299 12.9-38.299 21.199-14.1 6.5-27.199 14.7-41.299 21.099 4.2-4.8 9-9.1 14.2-12.8 7.9-5.7 15.4-12 23.099-18 10.3-7.9 21.499-14.4 32.299-21.499 11.1-7.3 23.199-12.8 34.999-18.8 13-6.6 26.799-11.3 40.399-16.2 16.201-5.298 32.6-9.998 49.4-11.898z" fill="#707274" stroke="#707274" stroke-width=".7382"/>
 <path d="m1680.6 38.264c2.8 0.5 5.6 0.9 8.4 1.5 10.9 3.1 21.899 5.7 32.699 9.2 1.1 0.4 2.2 0.8 3.3 1.1 0.6 0.5 1.7 1.5 2.2 2.1-1 0-2.9 0.1-3.9 0.2 2.4 5.8 4.9 11.6 6.3 17.7 1.5 6.5 0.7 13.2 0.1 19.799-8.3-2.5-16.7-4.8-24.799-8.2-20.599-8.5-42.599-12.9-64.198-17.9-8.1-1.5-16.099-3.1-23.899-5.8 16.4 0.3 32.699 1.9 48.999 3.7 5.2 0.4 10.5 1.2 15.599 0 4.2-1.7 6.8-6.2 7-10.6 0.098-5.299-4.001-9.399-7.801-12.799z" fill="#D47523" stroke="#D47523" stroke-width=".7382"/>
 <path d="m1461.5 41.064c11.2-2.8 22.699-1.5 34.099-1.6 19.299 1.3 38.299 4.7 57.398 7.6 14.1 3.5 28.599 5.1 42.899 8.1 7 1.6 14.1 2.5 21.199 2.8 7.8 2.7 15.9 4.3 23.899 5.8 21.599 5 43.599 9.4 64.198 17.9 8 3.4 16.4 5.7 24.799 8.2 5.3 1.5 11.2 3.4 14.2 8.5 4.5 6.6 0.9 15.9 6.2 22.099 4.5 5.3 9.9 10 14.5 15.2 11.9 13.2 26.199 23.999 40.599 34.399 40.599 27.199 88.698 45.299 138 44.899-2.6 2.5-5.3 5-8.5 6.8-25.299 14.7-52.299 26.599-80.598 33.799-14.1 3.5-28.699 4.8-43.199 4.5-17.5 0-34.899 0.2-52.399-0.7 0.1-1.1 0.3-3.4 0.4-4.5 17.5-4.6 35.599-7.8 52.198-15.2 11.3-5 23.399-9 33.099-17-7.1-0.9-14.1-2-20.999-3.8 21.499 1.8 43.299 2.2 64.698-1.3-8.9-3-18.4-3-27.499-5-18.099-3.7-36.099-8.7-52.899-16.6-30.699-14-58.598-33.299-86.198-52.599-38.599-26.399-79.398-50.099-123.4-66.398-25.799-9.3-51.699-18.6-78.398-25.099-11.4-2.6-22.999-4.5-34.599-6.6-7.896-1.1-15.896-2.1-23.696-4.2z" fill="#404040" stroke="#404040" stroke-width=".7382"/>
 <path d="m1485.3 45.364c11.5 2.1 23.099 4 34.599 6.6 26.699 6.5 52.599 15.7 78.398 25.099 43.899 16.4 84.798 39.999 123.4 66.398 27.599 19.299 55.499 38.499 86.198 52.599 16.8 8 34.699 12.9 52.899 16.6 9.1 1.9 18.599 1.9 27.499 5-21.4 3.5-43.199 3-64.698 1.3-23.399-5-45.599-14.3-67.598-23.499-15.5-6.7-30.199-15.1-45.299-22.399-14.6-8.1-29.199-16.1-43.699-24.299-10.4-6.8-21.299-13-31.999-19.299-6.8-8.3-12.6-17.3-20.099-24.899-5.3-5.3-11.6-9.3-18-13.2-7.9-4.9-17.599-5-25.699-9.5-8.4-4.4-18.4-5.4-27.299-1.9-5.7-5.4-11.1-14.6-20.199-12.3-4.8 4.9-9.3 10.2-12.4 16.3-4-2.2-8.5-3.6-13.1-3.2-4.8 1.4-9.4 3.4-14 5.5-5 0.6-10.2 0.6-14.9 2.5-2.4 0.9-4.4 2.3-6.4 3.9-0.9-0.1-2.5-0.4-3.4-0.5-15.5-2.1-31.199 0.4-46.699 1.1-26.599 2.1-53.099 6.4-78.898 13.3-14 3.5-27.399 8.5-41.099 12.8 12-8.3 25.599-14 38.299-21.199 27.399-13 54.798-26.199 83.698-35.299 23.799-7.7 48.499-12.3 73.398-14.1-1.1-1.303-2.1-2.303-2.9-3.403z" fill="#58595B" stroke="#58595B" stroke-width=".7382"/>
 <path d="m1552.8 47.164c8.9 0.2 17.699 1.7 26.399 3.5 12.5 2.5 25.299 4 37.699 7.5-7.2-0.3-14.3-1.2-21.199-2.8-14.2-3.1-28.699-4.7-42.899-8.2z" fill="#97723D" stroke="#97723D" stroke-width=".7382"/>
 <path d="m1723.4 52.364c1 0 2.9-0.1 3.9-0.2 1.6 1.5 3.3 2.9 5 4.4 4.1 10.6 3 22.099 2.4 33.199-1.2 0-3.7 0.1-5 0.1 0.6-6.6 1.4-13.3-0.1-19.799-1.3-6.101-3.8-11.901-6.2-17.7z" fill="#F0AD3F" stroke="#F0AD3F" stroke-width=".7382"/>
 <path d="m1523.4 67.463c9.1-2.3 14.5 7 20.199 12.3 8.9-3.5 18.9-2.5 27.299 1.9 8.1 4.5 17.8 4.7 25.699 9.5 6.4 3.8 12.7 7.9 18 13.2 7.6 7.6 13.4 16.7 20.099 24.899 4.1 10.8 10.1 20.699 14.4 31.299 2.2 5.4 4.9 10.5 7.8 15.5 3.7 19.999 5.8 40.599 2.2 60.698-1.5 4.1-3.4 8.2-3.9 12.6-1.2 7.7 0.5 15.8-2.4 23.099-2.2 5.8-6.3 11.3-12.2 13.8-4.1 1.4-8.5-0.2-12.5-1.2-3.9-7.5-10.5-16.3-6-24.999 0.7 4.5 2.4 8.7 4.7 12.7 2.3 0.2 4.5 0.4 6.8 0.6 3.1 0.3 6.2 0.9 9.3 0.5 4-2.4 5.5-7.2 6.7-11.5 3.5-16.1 1.8-32.699-1-48.799-2.1-20.399-6.7-40.499-14.2-59.698-2.9-8-6-16-11.2-22.799 3.1 13.6 9.3 26.499 10.7 40.499-9.6-14.2-14.1-31.299-24.999-44.699 2.8 12.2 8.9 23.099 13.6 34.599 11 24.699 18.9 51.199 19.499 78.398-6.8-4.4-7.6-13-10-19.999-5-16.7-13.1-32.099-19.9-47.999-2.1-4.8-4.8-9.3-7.9-13.5 2.3 11.9 9 22.399 11 34.399-8.1-10.2-12.5-22.599-18.299-34.199-4.9-9.7-9.4-19.699-14.7-29.199-3.9-7.1-5.9-14.9-9.2-22.299-2 12.1 1.1 24.099 1.8 36.199 0 2.3-0.1 4.5-0.2 6.8-0.7 3.7-1.9 7.3-3.1 10.9-2.2-8.9-2.2-18.1-3.7-27.099-1.5-11.5-5-22.499-8.8-33.399-1.6-6.7-5.3-12.7-11-16.6 0.1 3.5 0.4 7 1.1 10.4 3.3 14.4 5 29.399 3.1 43.999-3.6 7.4-6.9 15-9 22.999-3.1 9.8-1.2 20.199-1.6 30.199-12.9-27.299-14.2-58.098-16.5-87.698-4.3 6.2-4.8 14-5.3 21.299-0.7 10.6 2.1 21.099 0.9 31.699-2.9-5.4-4.9-11.2-5.5-17.3-1.4-12.7-2.1-25.699 0.4-38.299 2-11.4 10.5-20.599 10.7-32.399-0.697-1e-3 -2.197-0.901-2.897-1.301z" fill="#CF481C" stroke="#CF481C" stroke-width=".7382"/>
 <path d="m1511 83.763c3.1-6.1 7.6-11.5 12.4-16.3 0.7 0.4 2.2 1.2 2.9 1.7-3.4 3-6.6 6.3-8.8 10.2-7.5 12.9-10.7 27.899-11.6 42.699-0.7 11.1-1.8 22.499 1 33.399 1.4 5.6 3 11.1 4.7 16.6-6.2-10.6-8.5-22.799-11.2-34.599-1.8-0.2-3.6-0.1-5.4 0.2 1.9-0.9 3.7-1.9 5.5-2.9 1.1-17.4 2.3-35.3 10.5-50.999z" fill="#FB934A" stroke="#FB934A" stroke-width=".7382"/>
 <path d="m1517.6 79.363c2.2-4 5.4-7.3 8.8-10.2-0.2 11.8-8.7 21.099-10.7 32.399-2.5 12.6-1.8 25.599-0.4 38.299 0.6 6.1 2.6 11.9 5.5 17.3 1.2-10.6-1.7-21.099-0.9-31.699 0.5-7.3 1-15.1 5.3-21.299 2.3 29.599 3.6 60.398 16.5 87.698 0.5-10.1-1.4-20.399 1.6-30.199-2 13.2-0.1 26.499 2.2 39.599-15.4-3.3-26.699-15.8-33.799-29.199-1.8-5.5-3.3-11-4.7-16.6-2.8-10.9-1.7-22.299-1-33.399 0.899-14.801 4.099-29.8 11.599-42.7z" fill="#EE5826" stroke="#EE5826" stroke-width=".7382"/>
 <path d="m1484 86.063c4.5-2.1 9.1-4.1 14-5.5l0.8 2.4c-9 3.5-16 10.3-22.199 17.5-4.5 4.6-8.7 9.7-11.4 15.6-9.6 19.399-12.3 41.199-12.6 62.598-2.3-3-4.8-6-6.1-9.5-0.4-9.8-0.2-19.799 3.1-29.199 3.5-10.4 8.2-20.499 14.3-29.599 5.599-8.901 13.599-16 20.099-24.3z" fill="#F8964B" stroke="#F8964B" stroke-width=".7382"/>
 <path d="m1498 80.563c4.6-0.4 9.1 1 13.1 3.2-8.2 15.6-9.4 33.499-10.4 50.799-1.8 1-3.7 2-5.5 2.9-16.4 7.6-27.999 22.099-37.499 36.999-0.3 0.4-1 1.3-1.3 1.8-2.2-9.1 0.2-18.4 2.4-27.299 5.4-14.9 15.8-27.299 24.899-39.999-4.7 2.5-9.3 5.1-14 7.5 2-5.5 4-11 6.8-16.1 6.2-7.2 13.2-13.9 22.199-17.5-0.199-0.4-0.499-1.6-0.699-2.3z" fill="#CF481C" stroke="#CF481C" stroke-width=".7382"/>
 <path d="m1549.2 94.663c-0.7-3.4-1-6.9-1.1-10.4 5.8 3.9 9.5 9.9 11 16.6-1.7-1.6-3.4-3.1-5.1-4.5 1 9 3.7 17.7 5.4 26.599 3.2 16.3 6.8 32.599 8.6 49.099-0.5 1.2-1 2.4-1.5 3.5l-0.9 0.5c-1.7-0.7-3.4-1.4-5-2.1-1.8-6.9-4.4-13.6-5.5-20.699-0.8-4.9-1.5-9.8-2.7-14.5 1.9-14.8 0.1-29.8-3.2-44.099z" fill="#EE5826" stroke="#EE5826" stroke-width=".7382"/>
 <path d="m1469.1 88.663c4.7-1.9 9.9-1.9 14.9-2.5-6.6 8.2-14.5 15.4-20.299 24.199-6.1 9.2-10.8 19.199-14.3 29.599-3.3 9.3-3.5 19.399-3.1 29.199-1.8-5.9-1.6-12.1-2.1-18.1-7.6 4-12.1 11.3-16.7 18.2-0.1-5.6-0.7-11.5 1.7-16.7 3.8-10.2 12.6-17.5 16-27.799 1.5-4 3-8 5.6-11.4 6.9-9.1 14.9-17.4 24.299-23.899-1.8-0.399-3.9-0.599-6-0.799z" fill="#CE481C" stroke="#CE481C" stroke-width=".7382"/>
 <path d="m1462.7 92.463c1.9-1.5 4-3 6.4-3.9 2.1 0.2 4.2 0.5 6.2 0.8-9.4 6.5-17.4 14.8-24.299 23.899-2.6 3.4-4.2 7.4-5.6 11.4-3.5 10.3-12.2 17.7-16 27.799-2.5 5.2-1.8 11.1-1.7 16.7-0.5 2.2-1 4.4-1.6 6.6-3.7-7.4-4.4-15.7-3.6-23.799 5.9-16.3 12.5-32.899 24.699-45.499 5.001-4.801 10.401-9.201 15.5-14z" fill="#EE5727" stroke="#EE5727" stroke-width=".7382"/>
 <path d="m1412.6 93.063c15.5-0.7 31.199-3.2 46.699-1.1-9 6.2-18.9 12.1-24.799 21.699-7.1 11.5-11.6 24.799-12.1 38.399-0.8 8.1-0.1 16.4 3.6 23.799 0.6-2.2 1.2-4.4 1.6-6.6 4.6-6.9 9.1-14.2 16.7-18.2 0.5 6 0.2 12.3 2.1 18.1 1.3 3.6 3.9 6.5 6.1 9.5l1 1.4c0.9-1.2 1.9-2.5 2.9-3.7 0.3-0.5 1-1.3 1.3-1.8-0.7 5.7 0.6 11.2 1.3 16.8 1 9.3-1.8 18.6-6.2 26.699-8.5 11.1-16.1 22.999-20.5 36.399-4.6-1-9.2-1.9-13.7-3.1-2.1-1.7-5.4-3.1-5.3-6.3-0.1-7.6 2.8-14.9 2.7-22.499-0.3-13.4-3-27.199-10.6-38.499-9.5 3.8-17.7 10-24.699 17.4-0.8-15 2.2-29.799 5.2-44.399 2-9.4 4.1-18.8 7.5-27.799 4.799-12.8 9.799-25.9 19.199-36.199z" fill="#373737" stroke="#373737" stroke-width=".7382"/>
 <path d="m1459.4 91.963c0.8 0.1 2.5 0.4 3.4 0.5-5.1 4.8-10.6 9.1-15.6 14.1-12.2 12.7-18.899 29.299-24.699 45.499 0.5-13.6 5-26.899 12.1-38.399 5.9-9.601 15.7-15.401 24.799-21.7z" fill="#F4984C" stroke="#F4984C" stroke-width=".7382"/>
 <path d="m1333.7 106.36c25.799-6.9 52.299-11.1 78.898-13.3-9.4 10.2-14.5 23.399-19.399 36.099-3.4 9-5.6 18.4-7.5 27.799-3 14.6-6 29.399-5.2 44.399 7-7.4 15.2-13.6 24.699-17.4 7.6 11.3 10.3 25.099 10.6 38.499 0.2 7.6-2.7 14.9-2.7 22.499-0.1 3.1 3.2 4.6 5.3 6.3-27.899-6.9-53.999-20.499-76.098-38.799-24.499-18.899-50.499-35.599-76.298-52.599-6.5-4.5-13.9-7.9-19.3-13.9 1.3-2.1 2.9-4 4.6-5.8 14.1-6.4 27.199-14.6 41.299-21.099 13.699-4.198 27.099-9.198 41.099-12.698z" fill="#404040" stroke="#404040" stroke-width=".7382"/>
 <path d="m1554 96.262c1.7 1.5 3.5 3 5.1 4.5 3.8 10.9 7.3 21.899 8.8 33.399 1.5 9 1.4 18.2 3.7 27.099-1.1 3.2-2.2 6.5-3.2 9.7l-0.4 1c-1.8-16.6-5.4-32.799-8.6-49.099-1.7-8.899-4.4-17.599-5.4-26.599z" fill="#F8954A" stroke="#F8954A" stroke-width=".7382"/>
 <path d="m1465.1 116.06c2.8-5.9 6.9-10.9 11.4-15.6-2.8 5.1-4.9 10.6-6.8 16.1 4.7-2.4 9.3-5 14-7.5-9.2 12.8-19.5 25.099-24.899 39.999-2.2 8.8-4.6 18.2-2.4 27.299-0.9 1.2-1.9 2.5-2.9 3.7l-1-1.4c0.3-21.399 3-43.299 12.599-62.598z" fill="#ED5827" stroke="#ED5827" stroke-width=".7382"/>
 <path d="m1573.1 107.36c3.3 7.3 5.3 15.2 9.2 22.299 5.3 9.6 9.7 19.499 14.7 29.199 5.8 11.5 10.2 23.899 18.299 34.199-2-12-8.6-22.499-11-34.399 3.1 4.2 5.8 8.7 7.9 13.5 6.9 15.9 14.9 31.399 19.9 47.999 2.4 7.1 3.2 15.6 10 19.999-0.6-27.199-8.5-53.699-19.499-78.398-4.7-11.4-10.8-22.399-13.6-34.599 10.9 13.3 15.4 30.499 24.999 44.699-1.5-14-7.7-26.899-10.7-40.499 5.2 6.8 8.3 14.8 11.2 22.799 7.4 19.1 12.1 39.299 14.2 59.698 2.8 16.1 4.5 32.699 1 48.799-1.2 4.3-2.7 9.1-6.7 11.5-3.1 0.4-6.2-0.2-9.3-0.5 3.5-4.3 7.8-8.5 9.1-14.2 0.9-5.1 0-10.5-1.7-15.4-1.3-4.2-5.8-5.9-9.2-8-8.3-4.4-14.9-11.4-20.699-18.699-7.2-19.799-16.599-38.699-23.799-58.498-2.3-6.8-4.6-13.7-7.8-20.099-1.6 1.6-3.1 3.2-4.6 4.9-0.701-12.199-3.901-24.199-1.901-36.299z" fill="#EE5827" stroke="#EE5827" stroke-width=".7382"/>
 <path d="m1634.8 129.26c10.7 6.4 21.499 12.5 31.999 19.299 3.9 8.6 7.5 17.4 10.4 26.399 4.2 12.9 3.3 26.699 3.4 40.099-0.5 6.6-1.3 13.2-1.3 19.799-0.4-0.2-1.3-0.7-1.8-0.9 0.8-8.3 1.7-16.8-0.2-25.099-2.7-11.9-7-23.499-12.2-34.499-4.2-8.8-8.2-17.8-14.099-25.599 2.1 9.1 5.7 17.8 6 27.299-2.9-5-5.6-10.1-7.8-15.5-4.3-10.599-10.3-20.499-14.4-31.298z" fill="#D37523" stroke="#D37523" stroke-width=".7382"/>
 <path d="m1457.7 174.56c9.5-14.9 21.099-29.399 37.499-36.999 1.8-0.3 3.6-0.4 5.4-0.2 2.7 11.8 5.1 23.999 11.2 34.599 7.1 13.4 18.4 25.999 33.799 29.199-2.3-13-4.2-26.299-2.2-39.599 2.1-8 5.5-15.6 9-22.999 1.2 4.8 1.9 9.7 2.7 14.5 1.1 7.1 3.7 13.8 5.5 20.699-5.4 2.1-10.9 5-13.7 10.3 6.5-2 12.7-5.1 18.799-8.2l0.9-0.5c6.4-0.8 12.9-0.4 19.3-0.6 6.7 15.1 14.1 30.099 25.299 42.399 5.8 7.3 12.4 14.2 20.699 18.7 3.4 2.2 7.9 3.8 9.2 8 1.8 4.9 2.6 10.2 1.7 15.4-1.3 5.7-5.6 9.8-9.1 14.2-2.3-0.3-4.6-0.5-6.8-0.6-2.3-3.9-3.9-8.2-4.7-12.7 0.1-3.4 0.1-6.8-0.3-10.2-4.6 6.3-3.5 14.5-2.8 21.799 0.6 5.7 4.2 10.6 9.1 13.4 4 1 8.3 2.6 12.5 1.2 5.9-2.5 10-8 12.2-13.8 2.9-7.4 1.3-15.5 2.4-23.099 0.5-4.4 2.4-8.5 3.9-12.6 6.1-0.9 12.1-2.3 18.3-2.9 0.5 0.2 1.3 0.7 1.8 0.9 0.7 0.4 2 1.1 2.7 1.4-8.4 0.8-16.7 4.1-22.799 9.9-4.4 4.4-2.1 11-2 16.5 0.3 3.8 0.4 7.7 1.5 11.4 1.5 1.5 3.6 2.3 5.5 3.4-1.3-5.6-4.2-11.8-1-17.3 1-2.3 3.4-2.6 5.6-2.6-0.3 3.1-0.9 6.2-1.4 9.3 2.5-2.7 6.8-5.5 5.5-9.8-1.2-3.9-6.1-3.2-9.2-4.2 3.4-4 7-8.1 11.9-10.3 3.5-1.8 6.5 1.7 9.3 3.3 0.1-2.2 0.1-4.4 0.3-6.6 0.6 1.4 1 2.8 1.5 4.2 0.7 8.1 0 16.6-3.1 24.299-6.6 13.4-17.9 23.899-29.999 32.399-4.2 3.3-9.4 0.8-13.9-0.4-0.4 1.3-0.8 2.6-1.3 4-4.3 11.1-10.5 21.799-20 29.099-10.4 8-22.399 13.9-33.999 19.899-11.8 5.1-23.299 11.1-35.599 15.1-10.4 2.7-21.099 4.4-31.899 5.2-9.5-4.1-20.099-6.9-27.499-14.6-7.1-7.3-13.1-15.7-18.4-24.299 4 3.6 8.1 7.1 12.5 10.2 11.2 6.5 24.399 9.6 37.299 8.9 12.4-0.8 22.499-9.3 30.299-18.299 8.5-9.6 14.3-21.199 19.499-32.899 4.2-10.1 8.6-20.399 9.2-31.499-0.6 0.2-1.8 0.6-2.4 0.8-0.7 0.2-2.2 0.7-3 0.9 1.3-1.7 2.5-3.4 3.7-5.1 5.6 3.5 8.7 9.4 13.3 14 0.6-6.3-2.2-12.1-7.1-16.1 0.8-0.5 2.3-1.4 3-1.9-1.8-9.8-5-19.899-12.4-27.099-8-7.6-19.699-9.6-30.299-8.6-8.1 0.7-13.2 7.7-19.4 12.1-6.5 4.6-12.6 10.4-14.7 18.4-2.9-3.6-6.3-6.8-9.6-9.9 7-3.7 13.4-8.6 18.4-14.8-0.4-0.4-1.2-1-1.5-1.4-0.6-0.7-1.9-2.2-2.5-2.9-6.3-1.8-12.7-3.5-18.2-7.1-5.6-3.7-12-6.6-18.799-6.6-9.7-0.9-18 4.8-26.699 7.9 0.4-1.8 0.8-3.6 1.2-5.3 4.4-8.1 7.2-17.4 6.2-26.699-0.701-5.301-2-10.901-1.301-16.601m10.9-8.299c-4.5 3.3-7.2 8.7-6.8 14.3 4.5-4.5 7-11.9 14-13.2 8.1-2.5 12.6 6.7 19.5 8.7-2.8-5-6.7-9.8-12-12.1-4.9-0.8-10.7-1.2-14.7 2.3m-1.8 35.999c-0.1 0.8-0.2 2.2-0.2 3l-4.8-0.9c0.2 2.5 0.5 4.9 0.8 7.4 5.9-2.5 11.6-6.9 18.5-5.7 7.3 0 10.2 7.7 15.4 11.5-0.2-6.6-5.3-11.9-11-14.6-6.1-2.4-12.6 0.1-18.7-0.7m71.998 17.099c10.8-2 21.899-5.4 32.899-2.1 11.2 3.2 18.299 13.1 27.299 19.799 0.5-1.7 1-3.3 1.5-5 2.4-0.9 4.9-1.8 7.3-2.9-3.7-0.5-7.4-0.9-11-1.5 3.1-2.4 6.4-4.7 9.6-7 0.1-0.8 0.2-2.4 0.2-3.2-4.6 2.7-9.9 4.8-15.4 3.7 1.5-2.2 3.1-4.4 4.7-6.5-5.6 0.4-11.4 1.3-16.9-0.6-5.5-1.8-11.4-2.5-17.2-2.3-8.198-0.099-16.998 1.501-22.998 7.601z" fill="#F5CFAB" stroke="#F5CFAB" stroke-width="1.0898"/>
 <path d="m1574.9 143.56c1.5-1.6 3-3.2 4.6-4.9 3.2 6.4 5.6 13.3 7.8 20.099 7.2 19.799 16.5 38.699 23.799 58.498-11.2-12.3-18.599-27.399-25.299-42.399-0.7-1.5-1.4-3.1-1.9-4.7-2.4-6.9-4.4-14-6.8-20.899-0.6 0.3-1.8 0.8-2.4 1.1 0.1-2.299 0.2-4.499 0.2-6.799z" fill="#F69549" stroke="#F69549" stroke-width=".7382"/>
 <path d="m1574.7 150.36c0.6-0.3 1.8-0.8 2.4-1.1 2.3 6.9 4.4 14 6.8 20.899-5.1 0.7-10.3 0.9-15.5 0.8 1.1-3.2 2.2-6.5 3.2-9.7 1.2-3.599 2.4-7.199 3.1-10.899z" fill="#F5CFAB" stroke="#F5CFAB" stroke-width=".7382"/>
 <path d="m1650.9 148.86c5.9 7.8 9.9 16.8 14.1 25.599 5.2 11 9.5 22.599 12.2 34.499 1.9 8.3 1 16.7 0.2 25.099-6.1 0.6-12.2 2-18.299 2.9 3.7-20.099 1.5-40.799-2.2-60.698-0.301-9.599-3.901-18.299-6.001-27.399z" fill="#F9AE40" stroke="#F9AE40" stroke-width=".7382"/>
 <path d="m1666.8 148.66c14.5 8.2 29.199 16.2 43.699 24.299 15.2 7.3 29.899 15.7 45.299 22.399 2.4 10.8 4.8 21.699 4.9 32.799 0.3 9-1.2 17.8-1.7 26.699-0.1 1.1-0.3 3.4-0.4 4.5-1 10.1-4.9 19.699-9.2 28.799-0.4-11.3 0.3-22.699-1-33.999-1.2-12.6-4.2-24.999-8.6-36.799-3.3-8.5-7.2-17.1-13.8-23.599 5.3 20.899 17.4 40.699 15.3 62.998-2.8-4.4-5.5-8.9-8.2-13.3 0.2 9 1.4 17.9 2.2 26.799 0.9 9.8-1.7 19.399-3.3 28.899-0.4 1.4-0.7 2.9-0.9 4.3-1.8 0.8-3.6 1.6-5.4 2.5-1.6-17.3-4.7-34.599-10.9-50.999-4-10.1-5.9-21.199-12.6-30.099 1.4 12.4 6.6 24.099 7.5 36.499 0.8 9.8 0.7 19.599 1.2 29.299-0.4 6.5-1.4 12.9-3 19.199-4.3 9.8-8.6 20.399-17.799 26.599-3.1 2.6-7.2 2.7-11.1 2.8 5-9.5 13.8-18.299 12.7-29.899-5 4.1-9.9 8.4-15.3 12.1 3.3-10.4 9.4-20.199 8.6-31.499-5.8 7.5-8.8 16.6-14.1 24.399-3 4.5-6.1 8.9-9.3 13.2-2.8-7-6.8-13.5-12.3-18.7-3.3-2.4-7.1-3.9-10.9-5.4 0.4-1.3 0.8-2.6 1.3-4 4.5 1.2 9.7 3.7 13.9 0.4 12.1-8.4 23.399-19 29.999-32.399 3.1-7.6 3.8-16.1 3.1-24.299 3.5 14 4.8 28.499 9.5 42.199 1.7-4.9 3-10 2.9-15.1-0.2-16.2-4.2-32.299-11.4-46.799-1.7-3.5-4.4-6.3-7.1-8.9-0.1-13.4 0.7-27.099-3.4-40.099-2.898-8.496-6.498-17.196-10.398-25.796z" fill="#AA3B18" stroke="#AA3B18" stroke-width=".7382"/>
 <path d="m1468.6 166.26c4-3.5 9.8-3.1 14.6-2.3 5.3 2.4 9.2 7.2 12 12.1-6.9-2.1-11.4-11.2-19.5-8.7-7 1.3-9.4 8.7-14 13.2-0.3-5.701 2.5-11 6.9-14.3z" fill="#7A3118" stroke="#7A3118" stroke-width=".7382"/>
 <path d="m1568.4 170.96c5.2 0 10.3-0.2 15.5-0.8 0.5 1.6 1.2 3.2 1.9 4.7-6.4 0.2-12.9-0.2-19.299 0.6 0.5-1.2 1-2.3 1.5-3.5l0.399-1z" fill="#741A07" stroke="#741A07" stroke-width=".7382"/>
 <path d="m1546.8 184.16c2.9-5.4 8.3-8.2 13.7-10.3 1.7 0.7 3.3 1.4 5 2.1-6 3.1-12.1 6.2-18.7 8.2z" fill="#BD7C5B" stroke="#BD7C5B" stroke-width=".7382"/>
 <path d="m1725.9 193.86c6.6 6.5 10.5 15.1 13.8 23.599 4.4 11.9 7.5 24.199 8.6 36.799 1.3 11.3 0.6 22.699 1 33.999-1.6 2.9-3.5 5.8-5.5 8.5l-0.8 1c-1.1 1.2-2.2 2.4-3.3 3.5 0.4-6.6 1.9-13 2.5-19.499 0.4-8.4-2.1-16.7-5.7-24.199 0.5 14 3 29.099-4.6 41.699 1.6-9.6 4.2-19.2 3.3-28.899-0.8-8.9-2-17.8-2.2-26.799 2.8 4.4 5.5 8.9 8.2 13.3 2.1-22.301-10-42.101-15.3-63z" fill="#C5451C" stroke="#C5451C" stroke-width=".7382"/>
 <path d="m1755.8 195.46c22 9.2 44.199 18.6 67.598 23.499 6.9 1.8 13.9 2.9 20.999 3.8-9.7 8-21.799 12-33.099 17-16.699 7.4-34.699 10.6-52.198 15.2 0.6-8.9 2-17.8 1.7-26.699-0.201-11.101-2.6-22-5-32.8z" fill="#373737" stroke="#373737" stroke-width=".7382"/>
 <path d="m1466.8 202.26c6.2 0.8 12.6-1.6 18.599 0.6 5.7 2.6 10.9 7.9 11 14.6-5.2-3.7-8.1-11.4-15.4-11.5-6.9-1.1-12.6 3.2-18.5 5.7-0.3-2.5-0.6-4.9-0.8-7.4l4.8 0.9c0.101-0.7 0.201-2.2 0.301-2.9z" fill="#602F20" stroke="#602F20" stroke-width=".7382"/>
 <path d="m1538.7 219.36c6-6 14.8-7.6 22.999-7.6 5.8-0.3 11.6 0.5 17.2 2.3 5.5 1.9 11.3 1 16.9 0.6-1.6 2.1-3.2 4.3-4.7 6.5 5.5 1.1 10.8-1 15.4-3.7-0.1 0.8-0.2 2.4-0.2 3.2-3.2 2.4-6.4 4.6-9.6 7 3.7 0.6 7.4 1 11 1.5-2.4 1-4.8 2-7.3 2.9-0.5 1.6-1 3.3-1.5 5-9.1-6.6-16.1-16.6-27.299-19.799-11-3.401-22.1-1e-3 -32.9 2.099z" fill="#521D0A" stroke="#521D0A" stroke-width=".7382"/>
 <path d="m1451.5 223.46c8.7-3.1 17-8.8 26.699-7.9 6.9 0 13.2 2.9 18.799 6.6 5.5 3.6 11.9 5.3 18.2 7.1 0.6 0.7 1.9 2.2 2.5 2.9-6.2 6.2-13.4 13-22.599 13.8-9.3-0.9-19.4-4.1-27.999 1.2-5 2.3-7.4 7.3-8.9 12.3 4.9-4.9 9.4-11.6 17.099-12 12.9-0.8 23.699 7.4 34.499 13.2 0.2-0.6 0.5-1.9 0.6-2.5 2.1-8 8.3-13.7 14.7-18.4 6.2-4.4 11.3-11.4 19.4-12.1 10.6-1 22.299 1 30.299 8.6 7.4 7.1 10.6 17.3 12.4 27.099-0.8 0.5-2.3 1.4-3 1.9-5-3-10.9-3-16.4-2.3 3.3 1.5 6.8 2.9 10.1 4.4-1.2 1.7-2.4 3.5-3.7 5.1-2.2 1.9-4.2 4.1-5.2 6.8-2.7 0.3-5.3 0.6-8 0.8-8.7-1.1-16.8 2.7-25.199 4.1-12.3 2.6-24.999 3.2-37.099 7.1-4.7 1.4-9.2 3.5-13.8 5.2-5.7-0.1-11.2-1.9-16.9-2.4-5.9-0.2-11.6 1.6-17.4 2.8 3 14.1 12.2 25.599 20.099 37.299 5.4 8.6 11.3 17 18.4 24.299 7.4 7.6 18 10.5 27.499 14.6-11 0.5-22.199 1.1-33.199-0.1-12.3-4.8-13.7-19.199-19.199-29.499-6.9-11.7-15-22.699-22.699-33.799-11.1-15.9-13.7-36.699-9.6-55.399 4.4-13.3 12.1-25.299 20.5-36.399-0.1 1.999-0.5 3.799-0.9 5.599z" fill="#F5E0CD" stroke="#F5E0CD" stroke-width=".7382"/>
 <path d="m1680.5 215.06c2.7 2.6 5.4 5.4 7.1 8.9 7.2 14.5 11.1 30.599 11.4 46.799 0.2 5.2-1.2 10.3-2.9 15.1-4.7-13.7-6-28.299-9.5-42.199-0.4-1.4-0.9-2.8-1.5-4.2-1.1-1.1-2.1-2.1-3.2-3.1-0.7-0.4-2-1.1-2.7-1.4 0.1-6.7 0.8-13.3 1.3-19.9z" fill="#C3431B" stroke="#C3431B" stroke-width=".7382"/>
 <path d="m1702.1 225.06c6.6 8.9 8.6 19.999 12.6 30.099 6.2 16.3 9.3 33.599 10.9 50.999 1.8-0.8 3.6-1.6 5.4-2.5-0.1 1-0.4 3.1-0.6 4.1-8.9 3.4-10.2 13.7-14.5 20.999-4.2 7.3-8.7 14.6-14.4 20.899-4.9 5.4-12.7 5.5-19.4 4.6-4.8-1.9-9.1-4.9-13.2-8.1-3.3-5.7-5.2-12.1-7.4-18.2 3.2-4.4 6.3-8.7 9.3-13.2 5.3-7.8 8.3-17 14.1-24.399 0.8 11.3-5.3 21.099-8.6 31.499 5.3-3.7 10.3-8 15.3-12.1 1.1 11.6-7.7 20.299-12.7 29.899 3.8-0.1 8-0.1 11.1-2.8 9.2-6.2 13.5-16.8 17.799-26.599-1.2 6.7-3 13.4-6.7 19.2-3.6 6.5-9.4 11.1-14.8 15.9 11.9-0.3 22.599-8.8 25.999-20.099 4.5-15 3.3-30.999 1.7-46.299-1.2 4-2.4 8-3 12.2-0.5-9.8-0.4-19.599-1.2-29.299-1.098-12.7-6.298-24.399-7.698-36.799z" fill="#C6451C" stroke="#C6451C" stroke-width=".7382"/>
 <path d="m1517.8 232.16c0.4 0.3 1.2 1 1.5 1.4-5 6.2-11.4 11-18.4 14.8 3.4 3.2 6.8 6.3 9.6 9.9-0.1 0.6-0.4 1.9-0.6 2.5-10.8-5.8-21.599-14-34.499-13.2-7.6 0.4-12.1 7.1-17.099 12 1.4-5 3.9-10 8.9-12.3 8.6-5.3 18.8-2.1 27.999-1.2 9.199-0.8 16.299-7.7 22.599-13.9z" fill="#B98A74" stroke="#B98A74" stroke-width=".7382"/>
 <path d="m1659.1 246.26c6.1-5.9 14.4-9.2 22.799-9.9 1.1 1 2.2 2 3.2 3.1l-0.3 6.6c-2.8-1.6-5.8-5.1-9.3-3.3-4.8 2.2-8.5 6.3-11.9 10.3-2.4 3.1-4.5 6.4-6.6 9.7 1e-3 -5.401-2.199-12.101 2.101-16.5z" fill="#F5DCC5" stroke="#F5DCC5" stroke-width=".7382"/>
 <path d="m1619.1 271.86c-0.7-7.3-1.8-15.5 2.8-21.799 0.4 3.4 0.3 6.8 0.3 10.2-4.5 8.7 2.1 17.5 6 24.999-4.9-2.9-8.5-7.8-9.1-13.4z" fill="#E77546" stroke="#E77546" stroke-width=".7382"/>
 <path d="m1657.2 262.76c2-3.3 4.2-6.6 6.6-9.7 3.1 0.9 8 0.3 9.2 4.2 1.3 4.3-3 7.1-5.5 9.8 0.5-3.1 1.1-6.2 1.4-9.3-2.2 0-4.6 0.3-5.6 2.6-3.2 5.5-0.3 11.7 1 17.3-1.9-1.1-4-1.9-5.5-3.4-1.2-3.7-1.3-7.6-1.6-11.5z" fill="#C49274" stroke="#C49274" stroke-width=".7382"/>
 <path d="m1736.5 257.66c3.6 7.5 6.1 15.8 5.7 24.199-0.6 6.5-2.1 12.9-2.5 19.499-2.7 2.7-6 4.6-9.3 6.4 0.1-1 0.4-3.1 0.6-4.1 0.2-1.5 0.5-2.9 0.9-4.3 7.7-12.699 5.2-27.798 4.6-41.698z" fill="#E75627" stroke="#E75627" stroke-width=".7382"/>
 <path d="m1567.9 262.96c5.6-0.7 11.4-0.7 16.4 2.3 4.8 3.9 7.6 9.7 7.1 16.1-4.6-4.5-7.7-10.5-13.3-14-3.501-1.5-6.9-2.9-10.2-4.4z" fill="#B88260" stroke="#B88260" stroke-width=".7382"/>
 <path d="m1577.3 271.66c0.6-0.2 1.8-0.6 2.4-0.8-0.6 11.1-5 21.399-9.2 31.499-5.2 11.6-11 23.199-19.499 32.899-7.8 8.9-18 17.4-30.299 18.299-12.9 0.7-26.099-2.4-37.299-8.9-0.1-0.9-0.3-2.8-0.5-3.8 0.5 0.3 1.5 0.8 2 1.1 10.4 6.6 23.399 7.5 35.199 5.2 14.3-3.7 24.299-15.5 32.699-26.999 5.6-8 10.5-16.5 14.9-25.199 4.1-7.5 7.699-15.099 9.599-23.299z" fill="#EE5623" stroke="#EE5623" stroke-width=".7382"/>
 <path d="m1574.3 272.56c0.8-0.2 2.2-0.7 3-0.9-1.9 8.2-5.5 15.9-9.6 23.199 0-0.8 0.1-2.4 0.1-3.2-6.5 5.5-11.6 12.8-19.199 17.1-16 9.8-34.599 16.5-53.599 15.5-8.5-0.2-16.4-4-24.599-5.6-2.8-3.9-6.4-7.1-11-8.5-1.1-2.7-2.1-5.4-3.2-8.2 0.6 0 1.9-0.1 2.5-0.1 5.2 8.8 14.9 13.4 23.999 17 17.4 5.2 36.399 0.5 51.899-8.2 11-5.5 20.499-13.6 29.299-22.099 2.7-2.4 3.9-5.9 5.2-9.2 1-2.8 3-5 5.2-6.8z" fill="#A5A5A6" stroke="#A5A5A6" stroke-width=".7382"/>
 <path d="m1536 284.26c8.4-1.4 16.5-5.2 25.199-4.1-20.4 9.5-42.299 15.6-64.498 19-4.3 0-8.5-0.2-12.8-0.4 0.3-0.6 0.9-1.7 1.2-2.2 4.6-1.8 9.1-3.8 13.8-5.2 12-3.801 24.7-4.501 37.099-7.1z" fill="#ED5523" stroke="#ED5523" stroke-width=".7382"/>
 <path d="m1561.2 280.16c2.6-0.3 5.3-0.6 8-0.8-1.3 3.3-2.6 6.7-5.2 9.2-8.8 8.5-18.3 16.6-29.299 22.099-15.5 8.7-34.499 13.5-51.899 8.2-9.2-3.6-18.8-8.2-23.999-17 12.7-1.3 25.599 1 37.999-2.6 22.099-3.4 43.998-9.5 64.398-19.099z" fill="#F0F0F0" stroke="#F0F0F0" stroke-width=".7382"/>
 <path d="m1710.8 290.96c0.7-4.2 1.8-8.2 3-12.2 1.6 15.3 2.9 31.299-1.7 46.299-3.4 11.3-14.1 19.799-25.999 20.099 5.5-4.7 11.3-9.4 14.8-15.9 3.7-5.8 5.5-12.5 6.7-19.2 1.799-6.198 2.799-12.598 3.199-19.098z" fill="#EB5827" stroke="#EB5827" stroke-width=".7382"/>
 <path d="m1548.6 308.76c7.6-4.3 12.6-11.6 19.199-17.1 0 0.8-0.1 2.4-0.1 3.2-4.4 8.7-9.3 17.2-14.9 25.199-8.3 11.4-18.4 23.199-32.699 26.999-11.8 2.3-24.799 1.4-35.199-5.2-10.1-9.1-20.799-18.7-25.599-31.799 4.6 1.5 8.2 4.7 11 8.5 8.3 1.6 16.1 5.4 24.599 5.6 19.1 1.1 37.7-5.699 53.699-15.399z" fill="#F0F0F0" stroke="#F0F0F0" stroke-width=".7382"/>
 <path d="m1450.9 297.06c5.7-1.2 11.4-3 17.4-2.8 5.7 0.4 11.2 2.3 16.9 2.4-0.3 0.6-0.9 1.7-1.2 2.2 4.3 0.1 8.5 0.4 12.8 0.4-12.4 3.5-25.399 1.3-37.999 2.6-0.6 0-1.9 0.1-2.5 0.1 1 2.7 2.1 5.5 3.2 8.2 4.9 13.1 15.5 22.699 25.599 31.799-0.5-0.3-1.5-0.8-2-1.1 0.1 1 0.3 2.9 0.5 3.8-4.4-3.1-8.5-6.6-12.5-10.2-8.001-11.8-17.1-23.299-20.2-37.399m2.9 1.2c8.7 1.2 17.599 1.9 26.299 0.4-8-4.5-18-3.7-26.299-0.4z" fill="#BD998C" stroke="#BD998C" stroke-width="1.0898"/>
 <path d="m1453.8 298.26c8.3-3.3 18.2-4.1 26.299 0.4-8.7 1.5-17.6 0.8-26.299-0.4z" fill="#EC6033" stroke="#EC6033" stroke-width=".7382"/>
 <path d="m1739.8 301.36c1.1-1.1 2.2-2.3 3.3-3.5 1.1 6.3 7.3 13.1 2.2 18.999-9.4 12.2-26.199 14.8-36.499 25.799 13.5-5.7 27.499-10.3 39.899-18.1 1.3 1.8 2.5 3.6 3.8 5.5l0.2 1c-9.5 4.3-15.8 13-24.599 18.299-7.6 4.7-15.599 10.2-24.799 10.9-6.5-0.5-12.6-3.4-18.799-5-0.6-0.2-1.7-0.6-2.3-0.8 6.7 0.9 14.5 0.8 19.4-4.6 5.7-6.3 10.2-13.6 14.4-20.899 4.2-7.4 5.6-17.6 14.5-20.999 3.297-1.999 6.597-3.899 9.297-6.599z" fill="#D47523" stroke="#D47523" stroke-width=".7382"/>
 <path d="m1743.1 297.76l0.8-1c5.3 6.2 9.8 13.6 11 21.799-1.2 2.7-3.9 4.4-6.2 6-12.4 7.8-26.499 12.4-39.899 18.1 10.4-11 27.099-13.6 36.499-25.799 5-5.9-1.1-12.8-2.2-19.1z" fill="#F7AC41" stroke="#F7AC41" stroke-width=".7382"/>
 <path d="m1638.4 303.86c3.8 1.4 7.6 2.9 10.9 5.4-2.1 11.4 6.9 21.699 4.1 33.099-5.4 3.3-11.6 4.6-17.5 6.9-14.8 5.6-29.399 13.2-39.799 25.299-9.6 11.4-21.299 21.499-27.199 35.499 0.7-0.2 2-0.5 2.6-0.7-1.8 1.7-3.5 3.5-5 5.4-0.9-5-3.6-9.3-8.4-11.2 5.3-15.1 13.8-28.799 21.299-42.899 1.6-2.6 3.3-5.2 5-7.7 11.7-6 23.599-11.9 33.999-19.899 9.5-7.4 15.7-18.099 20-29.199z" fill="#592D7C" stroke="#592D7C" stroke-width=".7382"/>
 <path d="m1653.3 342.36c2.8-11.4-6.2-21.699-4.1-33.099 5.5 5.1 9.5 11.7 12.3 18.7 2.3 6.2 4.1 12.5 7.4 18.2-0.8 5-1 10.1-1 15.2-4.2 0.3-8.4 0.6-12.6 0.6-6.6-0.1-13.4-1-19.799 1.2-6.7 2.3-13 5.7-19.299 8.9-17.7 8.8-30.199 24.599-44.899 37.199-0.7 0.2-2 0.5-2.6 0.7 5.9-14 17.599-24.099 27.199-35.499 10.5-12.1 24.999-19.799 39.799-25.299 6-2.202 12.3-3.502 17.599-6.802z" fill="#78499D" stroke="#78499D" stroke-width=".7382"/>
 <path d="m1752.5 330.06c0.9 1.2 1.9 2.3 2.9 3.5 3.2 0.1 6.4 0.3 9.7 0.4-1.9 0.9-3.7 1.9-5.5 2.8-2-0.3-3.9-0.6-5.8-0.8-0.3-1.2-0.8-3.6-1-4.8l-0.3-1.1z" fill="#C5441C" stroke="#C5441C" stroke-width=".7382"/>
 <path d="m1728.1 349.36c8.8-5.3 15.1-14 24.599-18.299 0.3 1.2 0.8 3.6 1 4.8-14.3 13.1-31.099 22.899-48.099 31.899-4.1 1.7-8.3 2.7-12.6 3.8-5.6-3.7-8.9-9.7-8.6-16.5 6.3 1.6 12.3 4.6 18.799 5 9.302-0.6 17.302-6 24.901-10.7z" fill="#F8AE41" stroke="#F8AE41" stroke-width=".7382"/>
 <path d="m1765.1 333.96c10.1-0.8 20.199-1.6 30.299-1.4 9.1 0.2 18.5-0.3 27.199 3.1 5.9 2.3 12 4.5 16.8 8.7 6.6 5.9 9.9 14.5 12.2 22.799 4.7 17.7 5.7 36.099 5.3 54.399l-1.2 0.2c-1.2-0.2-3.5-0.7-4.7-1 0-7.1 0.4-14.7-3.1-21.199-6.5-12.3-16.2-22.699-27.399-30.799-5.8-4.2-11.7-8.1-16.8-13.1 16.699 5.3 29.599 17.7 43.099 28.299-3.3-17.2-15.2-33.199-31.799-39.499-17.8-6.7-37.499-1.8-55.499-7.9 1.9-0.7 3.7-1.7 5.6-2.6z" fill="#C5441C" stroke="#C5441C" stroke-width=".7382"/>
 <path d="m1753.7 335.86c1.9 0.3 3.9 0.5 5.8 0.8 18 6.1 37.599 1.2 55.499 7.9 16.599 6.2 28.499 22.299 31.799 39.499-13.4-10.7-26.399-22.999-43.099-28.299 5.1 4.9 11 8.9 16.8 13.1 11.2 8.1 20.9 18.5 27.399 30.799 3.5 6.5 3 14.1 3.1 21.199 1.2 0.2 3.5 0.7 4.7 1-3.4 0.8-6.7 1.7-10.1 2.5-11.4-24.599-33.999-40.999-55.698-55.799-8.5-5.3-16.9-10.9-25.899-15.4 7.2 8.6 17.199 14.1 25.899 21.099 11.7 8.9 22.799 18.9 31.499 30.799 4.9 6.8 8.1 14.6 12.2 21.899-11.3 1.9-22.499 4.5-33.899 5.5-10.5 0.8-20.699 3.4-31.299 3.3-9.9-0.2-19.7 2.6-29.599 1.3-7.8-1-15.6-1.3-23.399-1.5 4-9.8 11.1-18 15.6-27.599 4.8-10.3 12-19.799 13.1-31.299-4.1 3.9-7 8.7-10.3 13.2-0.9-0.6-1.4-1.4-1.3-2.5-0.2-5.5-0.1-10.9-0.8-16.3-4.4 10-5.8 21.099-11.4 30.599-6.3 10.9-15 19.999-23.099 29.499 3 1.4 6 2.8 9.2 4-13.5-0.6-26.299-5.5-38.299-11.4-5.3-2.9-12.9-6-12.3-13.3 5.7-2.3 11.2-5.2 15.9-9.3 9-7.8 18.799-14.5 28.499-21.399-1.3 13-12.9 20.999-18.199 32.199 7.9-3.1 12.8-10.4 17.099-17.3 4.9-7.8 6.9-17.2 6.3-26.399 17.197-9.397 34.096-19.297 48.296-32.397z" fill="#AA3C18" stroke="#AA3C18" stroke-width=".7382"/>
 <path d="m1548.7 368.06c12.3-4 23.799-10 35.599-15.1-1.7 2.6-3.4 5.1-5 7.7-6.6 2.2-10.9 8.1-17 11.2-4.4 2.4-9.1 4.2-13.8 6.1 0.301-3.3 0.201-6.6 0.201-9.9z" fill="#BB875E" stroke="#BB875E" stroke-width=".7382"/>
 <path d="m1764 352.96c9 4.5 17.4 10.1 25.899 15.4 21.799 14.8 44.399 31.199 55.698 55.799-4 0.9-8 1.8-12 2.5-4.1-7.3-7.3-15.1-12.2-21.899-8.7-11.9-19.799-21.899-31.499-30.799-8.698-6.902-18.698-12.302-25.898-21.001z" fill="#C2441D" stroke="#C2441D" stroke-width=".7382"/>
 <path d="m1463.1 359.16h3c0.8 2.1 1.6 4.1 2.5 6.1-5.3 8.1-4.3 17.9-4.4 26.999 1.4 2.5 2.7 5.1 4.1 7.7-3.7-1.4-7.5-2.7-10.4-5.4-3.6-3-6.2-7.1-10.3-9.4-7.2-1.7-16.599 2.9-21.599-4.7 7-3.8 14.6 2.5 21.599-0.3 6.901-5.4 10.901-13.7 15.5-20.999z" fill="#E1E5E6" stroke="#E1E5E6" stroke-width=".7382"/>
 <path d="m1562.3 371.86c6.1-3.1 10.4-9 17-11.2-7.5 14.1-16 27.799-21.299 42.899-2.5 1.3-4.9 2.8-7.7 3.4-3.9 0.1-7.3-2.1-10.6-3.6 4-8.1 7.4-16.5 8.9-25.399 4.599-1.9 9.299-3.7 13.699-6.1z" fill="#E3C090" stroke="#E3C090" stroke-width=".7382"/>
 <path d="m1635.6 363.16c6.4-2.2 13.2-1.3 19.8-1.2 2.5 4.8 5.2 9.7 5.8 15.1 0.8 6.2-0.4 12.4-1.7 18.5-1.2 4.8-2.6 9.6-3.6 14.5-0.6 7.3 7.1 10.3 12.3 13.3 0.3 1 1 3.1 1.3 4.1-2.8 0.5-5.7 1-8.5 1.5 0.8-1.4 1.5-2.8 2.3-4.2-4.6-2-9.6-2.9-14.599-2.5-2.9 13.4-8.6 26.099-15.2 37.999-5 9.3-11.4 18.4-12 29.299-2.6 8.7-6.8 16.8-10.1 25.299-2.8 7.1-5.4 14.3-8.3 21.299-6.6 14.5-6.5 30.699-9.3 46.199-0.8 4.8-2.9 11.1-8.5 11.9-11.7 1.6-24.199 2.3-34.499 8.7-0.3 1.5-0.4 3.1-0.5 4.7-1.5-1.6-2.9-4.5-5.6-3.6-9.4 2.1-17.9 7.2-27.299 9.6-0.4-3.4-0.9-6.8-1.1-10.2 0-0.9-0.1-2.7-0.1-3.7 1 0.8 2.1 1.7 3.2 2.5 1.7-1 3.5-2 5.3-3 0.9-15-0.3-30.199-4.7-44.499-1.1-3.8-2.6-7.6-3.1-11.6 3.5-2.5 7.6-3.8 11.6-5.3l-2.1 3.9c3.3 10.7 5.9 21.599 7.6 32.699 5.8-1.7 11.3-4.1 16.3-7.5 7.8-5.3 15.8-10.7 21.499-18.299 1.7-1.8 0.5-4.2 0.1-6.2-1-3.8-2-7.5-2.9-11.3 4.1 2.6 8 5.6 12.5 7.4 4.3-1.7 5.5-7 7.9-10.6 9.1-15.4 12.4-33.099 18-49.799 4.4-13.4 8.6-26.899 14.1-39.799 4.5-11.1 9.3-23.199 6.5-35.299-0.3-2.7-3.1-5.3-5.8-3.8-8.8 3.6-12.7 13.1-17.8 20.499-0.1-1.1-0.3-3.2-0.5-4.2-16.599 25.599-27.499 54.299-38.899 82.498-2.5 6-4.4 12.3-7.6 18-3.4 5.8-9.9 8.4-15.599 11.3-7 3.1-13.8 7-21.199 9.1-3-3.1-3.8-7.4-4.9-11.4-3.8-15-8.3-29.899-11.7-44.999-1.7-6.7 1-13.3 3.7-19.299 4.5-9.7 7.2-19.999 8.8-30.499-0.7 0.2-2.1 0.6-2.9 0.8-0.4-1.1-1.1-3.3-1.5-4.4-0.9 0.4-1.8 0.7-2.6 1.1-3.8 1.4-7.7 2.6-11.6 3.3 3.4-6 8-11.1 11.5-16.9-11.3-2.1-22.899-3.7-33.499-8.4 3.3-8.9 9.9-16.7 18.099-21.499 7.5-2.2 14.7 2.7 21.199 5.8 3.7 4.8 7.6 9.6 11.1 14.6-2.8 8-6.9 15.7-7.9 24.199-2 13.9-4.4 27.799-8.3 41.399-1.3 4.6-2.9 9.7-0.5 14.4 4.7 10.6 7.1 22.699 15.599 31.199 3.4 3.9 8.4 6.9 13.7 6 3.2 0.1 4.5-3.4 5.9-5.7 9.4-19.899 16.3-40.999 21.099-62.498 1.4-6.1 1.5-12.4 1.4-18.699-8.9 5-18.599 11.6-29.299 8.5-7.9-3-10-12.4-11-19.899 7.6 6.4 18.4 7.2 27.599 4.2 5.2-1.8 8.2-6.6 10.9-11 0.3-0.4 0.8-1.3 1.1-1.7 1.6-1.9 3.3-3.7 5-5.4 14.7-12.7 27.199-28.499 44.899-37.199 6.099-3.602 12.399-7.002 19.099-9.302z" fill="#353535" stroke="#353535" stroke-width=".7382"/>
 <path d="m1468.5 365.26c5.3 12.7 5.7 26.699 7.4 40.199 10.6 4.7 22.199 6.2 33.499 8.4-3.6 5.8-8.2 11-11.5 16.9 4-0.7 7.8-1.9 11.6-3.3 0.6 0 1.7-0.1 2.2-0.2 1.4 2.3 1.3 5 0.6 7.6-2.4 8.8-6.5 17-11 24.899 0-0.8-0.1-2.3-0.2-3.1-3.8 2.4-7.3 5.5-11.7 6.9-5.7 1-11.6-0.1-17.299 1.1-0.2-1-0.5-3.1-0.6-4.1-5.5 0.6-10.9 2.1-16.5 2.5 0.1-6.7 3.7-12.7 4.8-19.199-1.8 0.1-3.6 0.2-5.4 0.4 1.4-1.7 2.8-3.4 4.1-5.1-8 0.3-17 1.2-22.899 7.2-3.9 4.9-5.8 11.2-6.7 17.3-1 5.8 2.5 10.9 5.1 15.8-7.8 2.1-15.9 2.7-23.899 2.4 1.8-4.8 3.3-9.7 4.4-14.7-5.3 3.4-9.8 7.9-13.9 12.6-2.3-2-5.1-0.4-7.4 0.7 2.1-7.5 4.8-14.9 5.1-22.799 0.6-15.7-0.9-31.899 4.3-46.899 2.3-7.1 7.8-12.5 13.1-17.6-2.5-1-4.9-2.1-7.4-3 3.7-6.2 11.1-7.7 17.5-9.6 5 7.5 14.4 2.9 21.599 4.7 4.1 2.3 6.7 6.4 10.3 9.4 2.9 2.7 6.8 4 10.4 5.4-1.3-2.6-2.7-5.1-4.1-7.7 0.199-9.201-0.801-19.001 4.499-27.101m-8.4 52.699c-5.8 2.4-12.3 4.3-16.4 9.4 4.1 0.1 8.2-0.4 12.3 0.1 2.4 2.1 1.6 5.7 2.4 8.4 2.8-0.9 6.6-0.8 8.4-3.7 2.3-3.5 0.6-7.7 0.1-11.4 2.2-0.6 4.3-1.3 6.5-1.9 0-0.8 0-2.4 0.1-3.2-4.6 0.1-9.1 0.5-13.4 2.3m-50.498 23.799c4.2 0.1 8.7-0.5 12.7 1.1 0.9 2 1.2 4.2 1.7 6.3 3.4-0.5 8.1 0.5 9.8-3.3 2.2-3.2-0.4-6.7-1.6-9.8 2.2-1.3 4.3-2.6 6.5-4-2.4-0.8-4.7-2.5-7.2-1.5-8.001 2.201-15.6 5.801-21.9 11.2z" fill="#CDCED0" stroke="#CDCED0" stroke-width="1.0898"/>
 <path d="m1516.8 373.26c10.7-0.8 21.4-2.5 31.899-5.2 0 3.3 0 6.7-0.2 10-1.5 8.9-4.9 17.4-8.9 25.399-2.5-1.6-5.5-2.2-8.4-1.3-6.9-7.5-11.3-17-19.099-23.899-1-1.1-2-2.3-3-3.4-8.5-0.3-17.2 0.7-25.399-1.8 10.999 1.3 22.099 0.7 33.099 0.2z" fill="#592D7C" stroke="#592D7C" stroke-width=".7382"/>
 <path d="m1693.1 371.66c4.2-1.1 8.5-2.2 12.6-3.8 0.6 9.2-1.4 18.6-6.3 26.399-4.3 6.9-9.2 14.2-17.099 17.3 5.2-11.2 16.9-19.2 18.199-32.199-9.7 6.9-19.499 13.7-28.499 21.399-4.7 4.1-10.2 7-15.9 9.3 0.9-4.9 2.4-9.6 3.6-14.5 13.4-3.999 24.3-13.399 33.399-23.899z" fill="#C4441D" stroke="#C4441D" stroke-width=".7382"/>
 <path d="m1720.5 401.25c5.5-9.5 7-20.599 11.4-30.599 0.8 5.4 0.6 10.9 0.8 16.3-0.1 1.1 0.4 1.9 1.3 2.5 3.3-4.5 6.2-9.3 10.3-13.2-1.2 11.6-8.3 21.099-13.1 31.299-4.4 9.6-11.5 17.8-15.599 27.599-3-0.1-6-0.2-9-0.5-3.1-1.2-6.1-2.6-9.2-4 7.999-9.399 16.799-18.499 23.099-29.399z" fill="#C6451D" stroke="#C6451D" stroke-width=".7382"/>
 <path d="m1512.2 378.36c7.7 6.8 12.2 16.3 19.099 23.899-0.3 0.4-0.9 1.2-1.2 1.6-0.7 1-1.4 2-2.1 3-0.4-0.6-1.3-1.8-1.7-2.4-3.5-5-7.3-9.8-11.1-14.6-1.099-3.899-1.899-7.699-2.999-11.499z" fill="#76499B" stroke="#76499B" stroke-width=".7382"/>
 <path d="m1408.4 390.06c2.5 1 4.9 2 7.4 3-5.2 5.1-10.7 10.4-13.1 17.6-5.2 15.1-3.7 31.299-4.3 46.899-0.3 7.8-3 15.3-5.1 22.799-2.2 1.1-4.4 2.2-6.5 3.2 2-12.4 5.4-24.799 4.5-37.499-5.8-13.9-14.7-26.199-23.499-38.199 1.8-1.1 3.7-2.2 5.6-3.2 3.9 1.4 9.6 1.3 11.4 5.7 2 4.8 3.7 9.6 6.4 14.1 4.5-7.4 5.6-16.1 9.4-23.699 2.499-3.601 5.199-7.101 7.799-10.701z" fill="#E4E5E7" stroke="#E4E5E7" stroke-width=".7382"/>
 <path d="m1622.1 399.06c2.7-1.5 5.5 1.1 5.8 3.8 2.8 12.1-2 24.299-6.5 35.299-5.5 13-9.7 26.499-14.1 39.799-5.5 16.7-8.9 34.399-18 49.799-2.4 3.6-3.6 8.9-7.9 10.6-4.5-1.8-8.4-4.8-12.5-7.4 0.9 3.8 1.9 7.6 2.9 11.3 0.4 2 1.6 4.4-0.1 6.2-5.7 7.6-13.7 13-21.5 18.299-4.9 3.4-10.5 5.9-16.3 7.5-1.8-11.1-4.3-21.999-7.6-32.699l2.1-3.9c10.3-3.8 20.5-7.6 30.599-11.8 4-1.3 5.6-5.2 6.7-8.9 7.3-24.999 16.8-49.399 27.299-73.198 3.6-8.1 6.8-16.5 11.3-24.199 5.103-7.401 8.902-16.901 17.802-20.5z" fill="#404040" stroke="#404040" stroke-width=".7382"/>
 <path d="m1373.3 404.75c8.7-3.1 18-4.9 27.299-4-3.9 7.6-4.9 16.4-9.4 23.699-2.7-4.4-4.5-9.3-6.4-14.1-1.9-4.399-7.699-4.199-11.499-5.599z" fill="#CCCFD0" stroke="#CCCFD0" stroke-width=".7382"/>
 <path d="m1531.2 402.15c2.9-0.9 5.9-0.3 8.4 1.3 3.4 1.5 6.8 3.6 10.6 3.6 2.8-0.6 5.2-2.1 7.7-3.4 4.8 1.9 7.6 6.3 8.4 11.2-0.3 0.4-0.8 1.3-1.1 1.7-6.8 2.6-14.4 5.9-21.599 2.6-7.2-1.9-11.7-8.5-13.7-15.3 0.399-0.4 0.999-1.3 1.299-1.7z" fill="#D58104" stroke="#D58104" stroke-width=".7382"/>
 <path d="m1939.7 406.85c18.5-1.3 36.799-5.6 55.399-5.3 18.5 0.2 36.999-0.9 55.498 1 41.099 3.6 82.498 13.3 118.6 34.099 20.3 11.5 38.099 27.499 50.799 47.099 4.8 7.4 2.8 16.7 2.6 24.999-3.4 28.299-13.3 55.798-29.099 79.598 2.3-8.7 6.8-17.299 5.1-26.499-1.6-9.2-4.5-18.1-7.1-26.999-7.1-23.299-19.4-45.199-36.699-62.498-8.1-7.9-15.8-16.6-25.5-22.699-22.799-14.5-48.198-24.699-74.698-30.099-14.599-2.7-29.299-5-43.999-6.8-22.099-0.9-44.299-2.5-66.398-1.9-1.4-1.401-3-2.701-4.5-4.001z" fill="#3F3E3A" stroke="#3F3E3A" stroke-width=".7382"/>
 <path d="m1526.4 404.45c0.4 0.6 1.2 1.8 1.7 2.4-3.1 5.1-1.9 11.1-1 16.6 1 7.5 3.1 16.9 11 19.899 10.7 3.1 20.4-3.5 29.299-8.5 0.1 6.2 0 12.5-1.4 18.7-4.9 21.499-11.8 42.499-21.099 62.498-1.4 2.3-2.6 5.8-5.9 5.7-5.4 0.9-10.3-2.1-13.7-6-8.4-8.5-10.9-20.599-15.599-31.199-2.4-4.6-0.8-9.7 0.5-14.4 3.8-13.6 6.3-27.499 8.3-41.399 0.999-8.699 4.999-16.399 7.899-24.299z" fill="#404040" stroke="#404040" stroke-width=".7382"/>
 <path d="m1528 406.75c0.7-1 1.4-2 2.1-3 2 6.8 6.5 13.3 13.7 15.3 7.2 3.3 14.8 0 21.599-2.6-2.7 4.4-5.7 9.3-10.9 11-9.2 3-19.999 2.2-27.599-4.2-0.8-5.4-2-11.4 1.1-16.5z" fill="#EBA238" stroke="#EBA238" stroke-width=".7382"/>
 <path d="m1897.6 413.15c14-2.2 27.899-5.3 42.099-6.3 1.5 1.3 3 2.6 4.6 3.9 22.199-0.6 44.299 1 66.398 1.9 14.7 1.8 29.399 4.1 43.999 6.8 26.5 5.3 51.899 15.6 74.698 30.099 9.7 6.1 17.3 14.7 25.5 22.699 17.3 17.3 29.599 39.199 36.699 62.498 2.6 8.9 5.4 17.8 7.1 26.999 1.7 9.2-2.8 17.9-5.1 26.499-2.6 5.4-5.7 10.9-11 14.2-6.1-21.999-19.8-40.999-34.999-57.698-14.399-14.9-30.999-27.799-49.198-37.799-34.299-18.9-72.898-29.099-111.7-32.899-8.5-0.9-16.9-2.4-25.499-2.3-11.4 0.1-22.599-2.7-33.999-2.5-13.8 0.3-27.299-2.7-41.099-2.5-34.899-0.1-69.898-0.6-104.8-3-18.5 0.1-36.599-3.5-54.799-6.5-18.4-3.3-36.199-9.6-52.899-17.9-7.5-3.7-13.8-9.4-21.4-12.9-3.2 3.5-4.5 8.1-6.2 12.5-4.4 12.4-11.5 23.499-16.8 35.499-2.3 5.2-5 10.2-7.8 15.1 0.6-10.9 7-19.999 12-29.299 6.6-12 12.3-24.599 15.2-37.999 5-0.5 10 0.5 14.6 2.5-0.8 1.4-1.5 2.8-2.3 4.2 2.8-0.5 5.7-1 8.5-1.5-0.3-1-1-3.1-1.3-4.1 12 5.9 24.799 10.9 38.299 11.4 3 0.3 6 0.4 9 0.5 7.8 0.2 15.6 0.5 23.399 1.5 9.9 1.3 19.699-1.4 29.599-1.3 10.5 0.1 20.799-2.5 31.299-3.3 11.4-1 22.599-3.6 33.899-5.5 4-0.7 8-1.6 12-2.5 3.4-0.8 6.7-1.7 10.1-2.5l1.2-0.2c13.799-1.499 27.198-5.199 40.698-8.299z" fill="#373737" stroke="#373737" stroke-width=".7382"/>
 <path d="m1460.1 417.95c4.2-1.8 8.8-2.2 13.3-2.4 0 0.8-0.1 2.4-0.1 3.2-2.2 0.6-4.4 1.3-6.5 1.9 0.5 3.7 2.2 8-0.1 11.4-1.7 2.9-5.5 2.8-8.4 3.7-0.8-2.8 0-6.3-2.4-8.4-4.1-0.4-8.2 0-12.3-0.1 4.201-5 10.701-7 16.5-9.3z" fill="#545557" stroke="#545557" stroke-width=".7382"/>
 <path d="m1565 497.85c11.4-28.199 22.299-56.898 38.899-82.498 0.1 1.1 0.3 3.2 0.5 4.2-4.5 7.7-7.7 16.1-11.3 24.199-10.4 23.899-19.9 48.199-27.299 73.198-1 3.7-2.7 7.6-6.7 8.9-10.1 4.2-20.299 8-30.599 11.8-4 1.5-8.1 2.8-11.6 5.3 0.5 4 1.9 7.7 3.1 11.6 4.5 14.4 5.6 29.599 4.7 44.499-1.8 1-3.5 2-5.3 3-1.1-0.8-2.1-1.7-3.2-2.5 0 0.9 0.1 2.7 0.1 3.7-0.5 18.099 0 36.099 0 54.199-0.1 2.8 0.1 5.8-1.1 8.4-0.4-6.1 1-12.2 0.6-18.299-1.7-19.299 0.5-38.799-0.6-58.098-1.9-23.499-4.5-46.999-8.3-70.398-3-16.1-5.8-32.399-12.7-47.399 2.5-3.9 4.8-7.8 6.9-11.9 4.4-7.9 8.5-16.1 11-24.899 0.7-2.5 0.9-5.2-0.6-7.6-0.6 0-1.7 0.1-2.2 0.2 0.8-0.4 1.7-0.8 2.6-1.1 0.4 1.1 1.1 3.3 1.5 4.4 0.7-0.2 2.2-0.6 2.9-0.8-1.6 10.5-4.3 20.799-8.8 30.499-2.7 6-5.4 12.6-3.7 19.299 3.4 15.1 7.9 29.999 11.7 44.999 1.1 4 1.9 8.3 4.9 11.4 7.5-2.1 14.2-5.9 21.199-9.1 5.7-2.9 12.2-5.5 15.6-11.3 3.4-5.601 5.3-11.901 7.8-17.901z" fill="#191919" stroke="#191919" stroke-width=".7382"/>
 <path d="m1646.1 438.75c1.6-4.3 3-9 6.2-12.5 7.6 3.4 13.9 9.2 21.4 12.9 16.7 8.3 34.499 14.6 52.899 17.9 18.099 3.1 36.299 6.7 54.799 6.5 34.899 2.4 69.798 2.9 104.8 3 13.8-0.2 27.299 2.8 41.099 2.5 11.4-0.3 22.599 2.6 33.999 2.5 8.6 0 17 1.4 25.499 2.3 38.899 3.8 77.398 13.9 111.7 32.899-5.4 1.5-10.6 3.4-15.6 5.9-20.5 10.3-39.799 22.999-56.099 39.299-14-5.5-27.099-13.2-41.299-18-13.4-4.4-26.299-10.5-39.999-14.1-13.8-3.5-28.099-2.7-42.099-4.7-29.999-3.7-60.298-4.7-90.398-7.5-19.4-1.1-38.699-3.5-58.098-4.3-14.8-1.9-29.699-3.3-44.599-4.7-8.6-0.9-17.2-2.6-25.899-2.8 4.8 4.9 11 7.9 17.3 10.4 23.999 10.6 49.199 18.1 73.898 26.799 15.5 4.9 30.799 10.4 46.499 14.5 15.4 4.1 30.499 9.1 45.799 13.4 24.299 7.8 47.199 20.199 66.398 36.999 8.8 7.4 15.3 17.2 20.799 27.199-12.9 3.7-26.099 6-38.899 10-11 3.4-22.399 5.4-33.299 8.8-15 4.7-30.999 5.1-46.199 9.2-10.6 3.1-21.799 2.8-32.499 5.6-8.7 2.3-17.699 1.9-26.499 3.4-11.8 2.6-23.999 1.5-35.899 1.9-18.599-0.3-37.299 0.7-55.898-0.9-0.3-5.4-0.9-11-3.4-16-5.1-11.6-16.3-20.299-28.699-22.699-5.1-1.1-9.2 2.8-12.9 5.6-14.6 11.3-32.299 16.9-49.499 22.699 0.2-5.6-2.9-10.4-7-13.9-0.9 3.8-1.6 7.7-2.4 11.6 0.1-4.4 0.9-9.4-1.6-13.2-4.8-4.4-11.6-5.9-16.3-10.5-5.7-5.6-9.4-12.8-13.6-19.5 0-1.6 0.2-3.1 0.5-4.7 10.3-6.3 22.799-7 34.499-8.7 5.6-0.8 7.7-7.1 8.5-11.9 2.8-15.4 2.8-31.599 9.3-46.199 3-7 5.5-14.2 8.3-21.299 3.3-8.5 7.5-16.6 10.1-25.299 2.8-4.9 5.5-9.9 7.8-15.1 5.1-11.698 12.2-22.898 16.599-35.298z" fill="#573568" stroke="#573568" stroke-width=".7382"/>
 <path d="m1409.6 441.75c6.2-5.4 13.9-9 21.799-11.3 2.5-1 4.9 0.7 7.2 1.5-2.1 1.4-4.3 2.7-6.5 4 1.2 3 3.8 6.5 1.6 9.8-1.7 3.9-6.4 2.9-9.8 3.3-0.4-2.1-0.7-4.3-1.7-6.3-3.899-1.5-8.299-0.9-12.599-1z" fill="#555658" stroke="#555658" stroke-width=".7382"/>
 <path d="m1435.8 446.45c5.9-6 14.9-6.9 22.899-7.2-1.4 1.7-2.7 3.4-4.1 5.1-5.1 1.8-10.9 2.8-15.1 6.5-0.8 1.9-0.4 3.3 1.4 4.3 3.5 2.5 7.8 3.6 11.4 6.2 0.1 1.6 0.7 3.8-0.8 5-3.3 3.1-6.7 6.2-8.4 10.5h5c3.2-3.3 6.2-7.2 10.7-8.6 4.4-1.4 9-2.4 13.6-3.5 5.7-1.2 11.6-0.1 17.3-1.1 4.3-1.4 7.9-4.5 11.7-6.9 0.1 0.8 0.1 2.3 0.2 3.1-2.1 4.1-4.4 8-6.9 11.9-8.5 3.6-16.5 8.3-25.199 11.2-13.3 4.8-27.399 7.1-40.999 10.9-2.5 0.1-5 0-7.5-0.1-3.3-0.6-6.7-1.3-10-1.8-5.6-1-11.2-1.1-16.8-1.2-0.1-0.9-0.3-2.6-0.4-3.5 2.3-2.5 4.7-4.9 7-7.4 4.2-4.7 8.6-9.2 13.9-12.6-1 5-2.5 9.9-4.4 14.7 8 0.3 16.099-0.3 23.899-2.4-2.6-4.9-6.1-10-5.1-15.8 0.9-6.1 2.8-12.4 6.7-17.3z" fill="#E5E6E8" stroke="#E5E6E8" stroke-width=".7382"/>
 <path d="m1454.5 444.35c1.8-0.2 3.6-0.3 5.4-0.4-1 6.6-4.6 12.5-4.8 19.199 5.5-0.5 10.9-1.9 16.5-2.5 0.2 1 0.5 3.1 0.6 4.1-4.5 1.1-9.1 2.1-13.6 3.5s-7.6 5.3-10.7 8.6h-5c1.7-4.3 5.2-7.4 8.4-10.5 1.4-1.2 0.8-3.4 0.8-5-3.5-2.5-7.9-3.6-11.4-6.2-1.7-1-2.2-2.4-1.4-4.3 4.3-3.699 10.1-4.699 15.2-6.499z" fill="#545557" stroke="#545557" stroke-width=".7382"/>
 <path d="m1391.2 446.15c0.9 12.7-2.5 25.099-4.5 37.499 2.2-1.1 4.4-2.2 6.5-3.2 2.3-1 5.1-2.7 7.4-0.7-2.3 2.5-4.6 4.9-7 7.4 0.1 0.9 0.3 2.6 0.4 3.5 1 12.6-1.7 25.199-1 37.799-0.7 1.6-1.4 3.3-2 5-0.7-0.6-2.2-1.7-2.9-2.2 0.4-10.6 1-21.099-0.1-31.599-5 8.6-6.6 18.499-8 28.099-1.7 14.4-4.2 28.799-4.7 43.299-0.5 15.5 0.1 31.099-0.8 46.599-0.6 10.9 0.7 21.799 0.6 32.799-0.1 12 2.8 23.799 2.4 35.899-6.7-20.699-7.8-42.599-8.8-64.198-0.1-32.099-0.9-64.298 2.7-96.198-1.1-0.5-2.3-1-3.4-1.4-6.6 14.1-15.3 27.099-21.099 41.499-7 17.099-13.8 34.399-17.7 52.499-0.9-2.8-2-5.5-3.1-8.2-1.9 17.7 1.1 35.399 4.9 52.699-0.8-0.2-2.3-0.7-3-0.9-0.6 35.599 6.2 71.298 20.299 104 7.6 14.9 15.9 29.799 27.599 41.799 4.5 4.7 10 9 12.2 15.5-1.3 4.5-4 8.4-6.3 12.4l-0.8-0.6c-14.7-12.3-26.299-28.099-35.199-44.999-1.3-8.1-2.3-16.4-5.1-24.199-1.9-0.9-3.9-1.7-5.8-2.4-8.5-20.599-12.1-42.899-14.2-64.998-1.2-10.2-0.8-20.4-2-30.599-4.1 9.9-3.6 20.899-5.3 31.299-2.9 21.899 0.7 43.899 5.3 65.198 1.1 3.7 1.8 7.7 4.1 10.9-2.1 0.8-4.3-0.8-5.2-2.6-3.6-6.3-5.9-13.1-8.9-19.7-7.5-16.2-12.5-33.899-12.8-51.799 0-11.2-0.1-22.399 0.5-33.599 2.6-29.099 7-58.598 18.699-85.598 4.2-10.7 10.9-20.099 16.3-30.199-0.9 0.1-2.7 0.4-3.6 0.5 0.1-0.7 0.4-2 0.6-2.6-10.9 8-18.5 19.499-28.299 28.699-8.1 7.6-13.5 17.7-21.699 25.199 10.4-23.499 29.499-41.399 45.099-61.298 8.1-9.5 14.8-20.199 23.299-29.299-3.6 6.5-7.2 13-10.2 19.699 8.5-8.7 14.6-19.4 21.799-29.099 8.5-12.5 18.299-24.299 26.099-37.199-5.8 2.8-9.6 8.2-13.3 13.2-7 8.7-13 18.2-20.199 26.699 2.8-11 10.7-19.799 13.9-30.599-9.8 3.7-17.699 10.7-26.099 16.7-9.7 7.2-18.5 15.5-27.599 23.399-14.4 14.4-24.499 32.199-36.999 48.199 2.2-5.1 3.9-10.4 5.6-15.8-7.8 8.9-12.5 19.9-17.6 30.499-4.4 9.3-8 18.9-10.7 28.799-2.4 9.1-5.3 18.299-5 27.799-2.7 21.899-1.3 46.099 11.6 64.798 0.1-1.9 0.1-3.9 0.1-5.8 3.4 6.1 7.2 12 10.2 18.4-0.8 0-2.3-0.1-3-0.1-14.4-9.3-24.499-23.899-30.799-39.699-1.4-5.9-3.3-11.8-5.6-17.4-0.1-0.6-0.4-1.7-0.6-2.3-1.2-9.7-2.7-19.4-4.7-28.899-0.6-6.8-1.1-13.7-0.8-20.599 5.1-7.8 8.3-16.5 13.1-24.499 7.6-12.4 17-23.599 27.999-33.099-6.4 9.8-13.5 19.2-18.7 29.699-9.7 18.4-14.6 39.199-14.1 59.998 0.1 4.5 1.1 9 2.3 13.3 2.1-9.8 2.7-19.7 4.7-29.499 3-15.3 8.4-29.999 14.6-44.199 0.8 5.1 0.9 10.3 0.8 15.5 4.4-10.2 7.2-20.999 13.2-30.399 4.9-8.9 12.3-16.2 17.2-25.199 2-3.6 3.9-7.4 6.7-10.5 4.6-5.4 10.9-9.1 14.8-15.1 0.2-0.4 0.5-1.2 0.7-1.6 0.6-1.4 1-2.8 1.6-4.2-18.8 10-35.499 23.499-51.099 37.899-3 2.7-6.3 5.1-9.6 7.5 5.9-11.8 17.9-18.599 24.799-29.599-8 3.5-14.9 8.9-21.599 14.3-10.9 8.9-20.799 18.899-29.599 29.899-3.7 4.3-3.6 10.3-3.3 15.7-0.4-6.7-1.5-13.4-1.8-20.099-1-16.9 4.5-33.799 13.9-47.699 5.5-8.8 13.4-15.8 20.799-22.999 8-7.4 17.1-14.1 27.699-17.3 2.1 1 5.8-0.1 5-3 0.8-0.1 2.4-0.2 3.2-0.3 2.9-0.1 5.7-1.1 8.4-2.1 0.8-0.2 2.3-0.6 3.1-0.8 3.5 0.2 7 0 9.8-2.2 8.4-1.7 16.9-2.7 25.399-3.3 4.6 0.1 9.2 0.2 13.8 0.4 1.9 0.1 3.9 0.2 5.8 0.4-14.7 4.4-30.299 5.2-44.599 10.9-19.7 5.9-38.699 14.6-55.299 26.699-6.5 5.2-13.3 10.3-18.4 16.9-5.7 8.2-9.4 17.7-10.8 27.599 5.1-6.8 9-14.5 14.9-20.599 15.9-17.2 37.399-27.799 59.098-35.899 11.9-4.7 24.399-7.3 36.399-11.5-12.5-0.1-24.499 3.6-36.099 7.8-4.7 1.8-9.6 2.7-14.6 2.7 8.2-5 17.3-8.2 26.599-10.7 11.9-3 23.899-5.9 35.999-8 14.4-2.7 29.099-5.5 42.299-12.1-2.7-0.1-5.4-0.2-8.1-0.2 0.2-0.7 0.6-2 0.8-2.7 0.6 0.1 1.8 0.3 2.4 0.4 2.3 1 4.4-0.9 5-3 1.003-0.801 2.003-1.901 3.103-2.901m-33.199 68.398c-23.899 33.099-42.099 70.698-50.899 110.7-4.8 23.699-7.3 48.299-3.5 72.298 0.4 0.2 1.3 0.7 1.7 0.9 2.6-8.2 1.9-16.9 2.6-25.399 2.1-30.099 6.4-60.398 16.9-88.798 1.2 3.7 2 7.4 2.7 11.2 3.7-5.9 4.6-13 7.1-19.4 3.8-9.9 7.9-19.799 13.6-28.799 1.8-2.8 2.9-5.9 3.5-9.2-2.1 1.9-4.2 3.9-6.2 5.9-0.3-0.8-0.8-2.3-1-3 5.3-8.8 11-17.4 16.7-25.999 4.9-7.3 11.1-13.7 15-21.699-7.001 6.2-12.601 13.8-18.201 21.299z" fill="#E95622" stroke="#E95622" stroke-width="1.0898"/>
 <path d="m1383 452.25c-0.6-2.8 2.9-3.8 5-3-0.5 2.2-2.7 4.1-5 3z" fill="#E95622" stroke="#E95622" stroke-width="1.0457"/>
 <path d="m1373.2 454.75c2.2-1.5 4.6-2.9 7.4-2.9-0.2 0.7-0.6 2-0.8 2.7-2.2 0-4.4 0.1-6.6 0.2z" fill="#E95622" stroke="#E95622" stroke-width="1.0457"/>
 <path d="m1379.8 454.55c2.7 0 5.4 0 8.1 0.2-13.2 6.6-27.899 9.4-42.299 12.1-12.1 2.1-24.099 5-35.999 8 0.2-0.9 0.6-2.8 0.8-3.7-0.6 0.2-1.9 0.5-2.6 0.7 14.3-5.7 29.899-6.5 44.599-10.9-2-0.2-3.9-0.3-5.8-0.4 0-0.7-0.1-2-0.1-2.6 4.4 0.2 8.8 0.1 13.2-0.3 4.2 0 9.2 0.6 12.4-2.8h1.1c2.199-0.2 4.399-0.3 6.599-0.3z" fill="#F27E3A" stroke="#F27E3A" stroke-width=".7382"/>
 <path d="m1359.8 457.65c3.8-2 8-2.9 12.4-2.8-3.2 3.4-8.1 2.7-12.4 2.8z" fill="#F27E3A" stroke="#F27E3A" stroke-width=".7382"/>
 <path d="m1332.9 460.15c4.2-2.1 9-2.8 13.7-2.3 0 0.7 0.1 2 0.1 2.6-4.6-0.1-9.2-0.2-13.8-0.3z" fill="#F27E3A" stroke="#F27E3A" stroke-width=".7382"/>
 <path d="m1297.7 465.65c3.2-1 6.5-1.7 9.8-2.2-2.9 2.2-6.4 2.4-9.8 2.2z" fill="#E95622" stroke="#E95622" stroke-width="1.0457"/>
 <path d="m1286.2 468.55l8.4-2.1c-2.7 1-5.5 2-8.4 2.1z" fill="#E95622" stroke="#E95622" stroke-width="1.0457"/>
 <path d="m1371.2 479.65c3.8-5 7.5-10.4 13.3-13.2-7.9 13-17.599 24.699-26.099 37.199-7.3 9.7-13.3 20.4-21.799 29.099 3-6.8 6.6-13.3 10.2-19.699 1.4-2.2 2.8-4.5 4.2-6.7 7.198-8.499 13.298-17.899 20.198-26.699z" fill="#F89047" stroke="#F89047" stroke-width=".7382"/>
 <path d="m1277.9 471.75c0.6-2.2 2.8-3.6 5-3 0.8 2.9-2.9 4-5 3z" fill="#E95622" stroke="#E95622" stroke-width="1.0457"/>
 <path d="m1252.6 498.45c16.599-12.1 35.599-20.799 55.299-26.699 0.6-0.2 1.9-0.5 2.6-0.7-0.2 0.9-0.6 2.8-0.8 3.7-9.3 2.5-18.4 5.7-26.599 10.7 5 0 10-1 14.6-2.7 11.6-4.1 23.599-7.8 36.099-7.8-12 4.2-24.499 6.8-36.399 11.5-21.699 8.1-43.199 18.7-59.098 35.899-5.9 6.1-9.8 13.8-14.9 20.599 1.4-9.9 5.1-19.4 10.8-27.599 5.098-6.6 11.898-11.7 18.398-16.9z" fill="#F6A14D" stroke="#F6A14D" stroke-width=".7382"/>
 <path d="m1469.3 482.85c8.7-2.9 16.8-7.5 25.199-11.2 6.8 15 9.6 31.299 12.7 47.399 3.8 23.299 6.4 46.799 8.3 70.398 1 19.399-1.2 38.799 0.6 58.098 0.4 6.1-1 12.2-0.6 18.299-1.5 4.1-4.3 8.4-8.9 9.1-4.7 0.7-9.6 0.3-14.3-0.4-1-0.5-2.9-1.5-3.9-2l0.7-0.9c3.8 0.7 7.6 1.4 11.4 2.1 1.1-25.299 0.2-50.599-1.7-75.898-0.6-20.099-3.9-39.899-7.2-59.698-1.2-10-3.2-19.9-6.5-29.499-17.4 1-36.799 3.8-52.199-6.4-0.7 3.2-1.5 6.3-2.2 9.5 0.1-5.5 0-11 0.1-16.5-0.6-0.4-1.9-1.2-2.5-1.6 13.601-3.699 27.701-5.999 41-10.799z" fill="#CCCDCF" stroke="#CCCDCF" stroke-width=".7382"/>
 <path d="m1338.8 492.45c8.4-6 16.3-13.1 26.099-16.7-3.2 10.9-11.1 19.599-13.9 30.599-1.4 2.3-2.8 4.5-4.2 6.7-8.6 9.1-15.2 19.799-23.299 29.299-15.599 19.899-34.699 37.799-45.099 61.298 8.2-7.6 13.5-17.6 21.699-25.199 9.8-9.2 17.4-20.699 28.299-28.699-0.1 0.7-0.4 2-0.6 2.6-2.3 5-5.7 9.3-8.6 13.9-11.9 19.299-21.099 40.399-26.899 62.298-3.1 12.1-4.8 24.499-6.7 36.799-2 8.6-3.5 17.299-4.1 26.099-0.7 9.2 1 18.4 1.1 27.599-6.2-0.5-12.2-2.4-17.199-6.3 0.8 0 2.3 0.1 3 0.1-3-6.4-6.8-12.3-10.2-18.4-4.3-11.4-6.6-23.299-8.7-35.199-0.3-11.8-0.4-23.799 2.2-35.499 4.4-20.899 12.1-40.999 22.399-59.698 12.5-16 22.599-33.799 36.999-48.199 9.101-7.898 18.001-16.098 27.701-23.398z" fill="#CF481C" stroke="#CF481C" stroke-width=".7382"/>
 <path d="m1394.1 490.65c5.6 0.1 11.2 0.2 16.8 1.2-5.7 12.3-12.2 24.299-17.799 36.599-0.701-12.6 1.899-25.199 0.999-37.799z" fill="#CE491C" stroke="#CE491C" stroke-width=".7382"/>
 <path d="m1410.9 491.85c3.3 0.5 6.6 1.2 10 1.8-3 0.4-5.9 0.9-8.9 1.4-2.8 8.2-5.3 16.5-7.6 24.799-2.4 8.4-5.4 16.799-5.2 25.699 0 10.7 3.8 21.099 9.3 30.199 3.8 6.9 9.1 13 12.2 20.299 2.4 5.7 1.7 12 0.7 17.799-4.5-4.4-8.2-9.5-11.9-14.5-1.2-1.6-2.4-3.1-3.6-4.7-3.7-5.1-7.3-10.4-10.7-15.7-1.5-2.8-2.8-5.6-4.1-8.5-6-11.6-5-25.199 0.1-36.899 0.6-1.7 1.3-3.3 2-5 5.5-12.397 12-24.396 17.7-36.696z" fill="#3F3F3F" stroke="#3F3F3F" stroke-width=".7382"/>
 <path d="m1358 514.55c5.6-7.5 11.2-15 18.3-21.199-3.9 8-10.1 14.4-15 21.699-5.8 8.5-11.4 17.099-16.7 25.999-8 13.7-14.9 28.099-19.699 43.299-10.5 28.399-14.8 58.698-16.9 88.798-0.7 8.5 0 17.2-2.6 25.399-0.4-0.2-1.3-0.7-1.7-0.9-3.8-24.099-1.3-48.599 3.5-72.298 8.7-40.098 26.9-77.697 50.799-110.8z" fill="#F7A14F" stroke="#F7A14F" stroke-width=".7382"/>
 <path d="m1420.9 493.65c2.5 0.1 5 0.2 7.5 0.1 0.6 0.4 1.9 1.2 2.5 1.6-0.1 5.5-0.1 11-0.1 16.5-0.4 2.4-0.8 4.7-1.1 7.1-0.4-4.3-0.9-8.7-1.3-13-3.3 2.2-6.5 4.4-9.8 6.6 3.8 2.4 7.5 5 11.1 7.6 0.3 12.2-1.4 24.199-1.7 36.299-1.8 10.8-1.3 21.799-2.3 32.599-0.7 9.3-0.7 18.5-1 27.799-1.1-1-2.2-2.1-3.2-3.2 1-5.9 1.8-12.2-0.7-17.799-3.1-7.3-8.4-13.4-12.2-20.299-5.5-9.1-9.4-19.4-9.3-30.199-0.2-8.9 2.9-17.3 5.2-25.699 2.4-8.3 4.8-16.6 7.6-24.799 2.801-0.302 5.801-0.802 8.8-1.202z" fill="#353535" stroke="#353535" stroke-width=".7382"/>
 <path d="m1684.3 495.95c8.7 0.2 17.3 1.9 25.899 2.8 14.9 1.3 29.699 2.8 44.599 4.7 19.399 0.8 38.699 3.1 58.098 4.3 30.099 2.8 60.398 3.8 90.398 7.5 14 2 28.299 1.2 42.099 4.7 13.7 3.5 26.499 9.6 39.999 14.1 14.3 4.8 27.299 12.5 41.299 18-14.6 13.6-27.999 28.399-40.899 43.599-6.2 7.8-13.7 15-17.4 24.499-0.4 0.2-1.3 0.7-1.7 0.9-3.6 2-7.6 3.2-11.5 4.3-5.5-10-12-19.799-20.799-27.199-19.3-16.7-42.199-29.199-66.398-36.999-15.3-4.3-30.399-9.3-45.799-13.4-15.7-4.1-30.999-9.6-46.499-14.5-24.699-8.7-49.899-16.2-73.898-26.799-6.499-2.501-12.699-5.501-17.499-10.501z" fill="#724588" stroke="#724588" stroke-width=".7382"/>
 <path d="m1380 527.75c1.4-9.7 3-19.599 8-28.099 1.1 10.5 0.5 21.099 0.1 31.599 0.7 0.6 2.2 1.7 2.9 2.2-5.1 11.7-6.1 25.399-0.1 36.899-0.9 0-2.7 0-3.6-0.1-0.6 30.499 2.5 60.798 6.3 90.998 1.8 10.3 5 20.399 6.2 30.799-0.7 9.2-1.7 18.3-4.2 27.199-3.3 10.2-0.8 21.099-3.6 31.399 1.1 0.9 2.3 1.8 3.5 2.7-0.1 3.1-0.3 6.2-0.4 9.3-11-5.8-16.2-17.7-23.999-26.699-9-11.6-14.1-25.499-22.199-37.599-11.4-25.199-18.299-52.599-19.799-80.198 3.9-18.099 10.7-35.399 17.7-52.499 5.9-14.4 14.6-27.399 21.099-41.499 1.1 0.5 2.2 0.9 3.4 1.4-3.6 31.999-2.8 64.098-2.7 96.198 0.9 21.599 2 43.499 8.8 64.198 0.4-12-2.5-23.899-2.4-35.899 0.2-10.9-1.1-21.799-0.6-32.799 0.9-15.5 0.3-31.099 0.8-46.599 0.699-14.2 3.099-28.499 4.798-42.899z" fill="#D0491C" stroke="#D0491C" stroke-width=".7382"/>
 <path d="m1432.9 502.35c15.4 10.1 34.799 7.4 52.199 6.4 3.3 9.5 5.3 19.499 6.5 29.499 3.3 19.699 6.6 39.599 7.2 59.698 1.9 25.199 2.8 50.599 1.7 75.898-3.8-0.7-7.6-1.4-11.4-2.1-2.8-0.3-5.7-0.3-8.6-0.3-3.6-6.6-0.4-13.9-0.3-20.899 0.2-5.5 0-10.9 0.6-16.4 1.8-14.3 0.9-28.799 1.4-43.199-0.2-11.9 0.6-23.899-1.1-35.699-1-6.1-2-12.1-2.8-18.2-6.6 0.1-13.3 0.5-19.899-0.1-6.6-0.6-12.8-3.2-19.099-5.4 0.5 21.799 6.8 42.799 8.4 64.498 2.6 28.099 2.9 56.398 0.6 84.498-4.2-0.5-8.4-0.9-12.6-1.7l-4.8-2.1c-2-2.4-3.9-5-5.4-7.7-0.3-4.8 0.1-9.6-0.4-14.4-0.4-4.4-4.2-8-3.7-12.6 1-7.6 1.9-15.2 3.3-22.799 1.7-8.4 1.8-17 2.2-25.499 0.5-12.4 1.8-24.799 0.9-37.199 0.3-12.1 2.1-24.199 1.7-36.299v-1.2c0.3-2.4 0.7-4.7 1.1-7.1 0.799-3.198 1.599-6.398 2.299-9.598z" fill="#E6E7E8" stroke="#E6E7E8" stroke-width=".7382"/>
 <path d="m1256.6 542.15c15.6-14.4 32.299-27.899 51.099-37.899-0.5 1.4-1 2.8-1.6 4.2-8 5.5-16.2 11.1-22.499 18.6-6.8 6.3-13 13.1-19.599 19.599-11 9.5-20.4 20.699-27.999 33.099-4.8 7.9-8 16.7-13.1 24.499-1.9-8-5-15.9-5.6-24.199-0.3-5.4-0.3-11.3 3.3-15.7 8.8-11 18.699-20.999 29.599-29.899 6.7-5.5 13.6-10.9 21.599-14.3-6.8 11.1-18.9 17.799-24.799 29.599 3.299-2.499 6.499-4.899 9.599-7.599z" fill="#CF481C" stroke="#CF481C" stroke-width=".7382"/>
 <path d="m1418.4 512.55c3.3-2.2 6.6-4.4 9.8-6.6 0.4 4.3 0.9 8.7 1.3 13v1.2c-3.601-2.601-7.301-5.201-11.1-7.6z" fill="#171617" stroke="#171617" stroke-width=".7382"/>
 <path d="m1283.6 526.95c6.4-7.5 14.5-13.1 22.499-18.6-0.2 0.4-0.5 1.2-0.7 1.6-3.9 6-10.2 9.8-14.8 15.1-2.8 3.1-4.7 6.9-6.7 10.5-4.8 9-12.2 16.2-17.2 25.199-6 9.4-8.8 20.299-13.2 30.399 0.1-5.2-0.1-10.3-0.8-15.5 3.6-9.6 9.6-18 15.1-26.599 4.901-7.599 12.301-13.499 15.801-22.099z" fill="#F07F3A" stroke="#F07F3A" stroke-width=".7382"/>
 <path d="m1283.6 526.95c-3.5 8.6-10.9 14.5-15.7 22.299-5.4 8.6-11.5 17-15.1 26.599-6.2 14.2-11.6 28.899-14.6 44.199-2 9.8-2.6 19.7-4.7 29.499-1.2-4.3-2.2-8.8-2.3-13.3-0.5-20.799 4.4-41.599 14.1-59.998 5.2-10.5 12.3-19.899 18.7-29.699 6.6-6.499 12.8-13.399 19.6-19.599z" fill="#F7A24F" stroke="#F7A24F" stroke-width=".7382"/>
 <path d="m1439.3 531.45c6.2 2.2 12.4 4.8 19.099 5.4 6.6 0.6 13.2 0.2 19.9 0.1 0.8 6.1 1.7 12.2 2.8 18.2l-1.2-0.6c-6 0.7-11.9 2.4-17.9 3.4-0.2 11.3 0 22.499 0.1 33.799-1.4 14.3 1.1 28.599 1.1 42.999 0.2 15.7 3.4 31.599 0 47.099-4.9 0-9.8 0.1-14.7-0.1-4.4-0.3-8.7-1.3-12.7-3 4.2 0.8 8.4 1.2 12.6 1.7 2.3-28.099 2.1-56.398-0.6-84.498-1.599-21.7-7.899-42.7-8.499-64.499z" fill="#CCCDCF" stroke="#CCCDCF" stroke-width=".7382"/>
 <path d="m1345.5 544.05c2-2 4.1-4 6.2-5.9-0.5 3.3-1.7 6.4-3.5 9.2-5.7 9-9.9 18.9-13.6 28.799-2.5 6.4-3.4 13.5-7.1 19.4-0.7-3.8-1.5-7.5-2.7-11.2 4.8-15.2 11.7-29.599 19.7-43.299 0.2 0.7 0.8 2.2 1 3z" fill="#EB692D" stroke="#EB692D" stroke-width=".7382"/>
 <path d="m1262.2 578.85c5-10.6 9.7-21.599 17.599-30.499-1.6 5.3-3.4 10.6-5.6 15.8-10.2 18.7-18 38.899-22.399 59.698-2.6 11.6-2.5 23.599-2.2 35.499-1.4-7.9-0.8-16.1-3-23.799-0.3-9.5 2.6-18.7 5-27.799 2.6-10.001 6.3-19.6 10.6-28.9z" fill="#F5833E" stroke="#F5833E" stroke-width=".7382"/>
 <path d="m1327.8 552.45c0.9-0.1 2.7-0.4 3.6-0.5-5.4 10.1-12.1 19.499-16.3 30.199-11.7 26.999-16.099 56.498-18.699 85.598-0.6 11.2-0.5 22.399-0.5 33.599 0.3 18 5.4 35.599 12.8 51.799 3 6.5 5.3 13.4 8.9 19.7 0.9 1.9 3 3.5 5.2 2.6l0.7 0.1c-0.7 2.5-4 2.4-6 3.2-0.7 2.7-1.4 5.4-2 8-2.1-7.7-7-14-10.7-20.899-10.8-20.999-16.099-44.299-18.299-67.698-0.6-11-0.1-21.899-0.7-32.899 1.9-12.3 3.5-24.699 6.7-36.799 5.8-21.999 15-42.999 26.899-62.298 2.599-4.503 6.099-8.803 8.399-13.702z" fill="#F6A24E" stroke="#F6A24E" stroke-width=".7382"/>
 <path d="m1462 558.05c6-1.1 11.8-2.7 17.9-3.4v2.8c-2.5 2.5-6.3 4.5-6.8 8.3-2.4 13.4 1.2 26.899 0.5 40.299-0.2 5.3-4.1 9.2-7.3 13-0.6-0.7-1.9-2.1-2.5-2.8 0-8.2-0.2-16.4-1.6-24.499-0.2-11.2-0.4-22.4-0.2-33.7z" fill="#181818" stroke="#181818" stroke-width=".7382"/>
 <path d="m1479.8 554.65l1.2 0.6c1.7 11.8 1 23.799 1.1 35.699-0.4 14.4 0.4 28.799-1.4 43.199-0.6 5.4-0.5 10.9-0.6 16.4-0.1 7-3.3 14.3 0.3 20.899 2.8 0 5.7 0 8.6 0.3l-0.7 0.9c-5.6 5.6-2.9 14-3.9 21.099-1 10-4.5 19.499-9.6 28.199-2.4 0.6-4.8 1.3-7.2 2-2.5-4.9-4.4-10.2-4.6-15.7-0.4-8.7-1.5-17.5 0-26.199 3.4-15.5 0.2-31.399 0-47.099 0-14.3-2.5-28.599-1.1-42.999 1.4 8.1 1.6 16.3 1.6 24.499 0.1 7.6 0 15.3 0.2 22.899 5.4-2.2 10.8-4.6 16.1-7.1 0.1-24.899 0.8-49.799-0.2-74.698 0.2-0.798 0.2-2.198 0.2-2.898z" fill="#98988E" stroke="#98988E" stroke-width=".7382"/>
 <path d="m1425.5 589.15c1-10.9 0.5-21.799 2.3-32.599 0.9 12.4-0.4 24.799-0.9 37.199-0.4 8.5-0.5 17.099-2.2 25.499-1.7-0.2-3.4-0.4-5.1-0.3-1.8 8-1.8 16.2-2 24.399-0.1 17.7-1.3 35.399-2.5 53.099-0.3 11.2-1.5 23.999 6 33.299-0.8 0.1-2.3 0.4-3.1 0.5-2.2 17.299-2.3 34.799-5 51.999-0.4 4.1-0.7 8.2-1.1 12.3-1.9 12.4-2.5 24.999-6.1 37.099-1.1 3.8-2.3 7.6-3.4 11.5 3.1 0.1 6.1 0.3 9.2 0.3-0.1 0.6-0.2 1.8-0.3 2.4-4.1-0.1-8.2-0.1-12.3-0.1 0.5-1.8 0.8-3.5 1.3-5.3-7.5 5.6-15.1 11.6-24.399 13.8-15.599 4.7-33.999-0.6-43.999-13.7-5.7-6.7-7.9-15.8-7.3-24.499 0.6-12.9 6-24.699 10.6-36.599 3.2-3.8 5.5-8.3 5.3-13.4 2.8 7.8 3.8 16.1 5.1 24.199-7.7 3.7-15.6 11.4-12.7 20.699-1.4 2-2.3 4.5-0.9 6.7 5.9 12.6 18.099 22.199 31.899 24.699 4.6 1 9-1.2 12.7-3.8 1.4-1.1 2.9-2.3 4.3-3.4l0.8 0.6c2.1 2.5 4.9 0 6.5-1.8 5.5-6.8 8.1-15.5 10.2-23.799 6-24.399 7.6-49.699 7.3-74.798 0.4-28.799-1-57.698 0.1-86.498 1.5-16.5 1.1-33.199 3.4-49.699 3.8 5 7.5 10.1 11.9 14.5 1 1.1 2.1 2.1 3.2 3.2 0.499-9.2 0.499-18.4 1.199-27.699z" fill="#98988F" stroke="#98988F" stroke-width=".7382"/>
 <path d="m1473 565.85c0.5-3.9 4.3-5.9 6.8-8.3 1 24.899 0.3 49.799 0.2 74.698-5.3 2.5-10.7 4.8-16.1 7.1-0.2-7.6-0.1-15.3-0.2-22.899 0.6 0.7 1.9 2.1 2.5 2.8 3.2-3.8 7.1-7.7 7.3-13 0.7-13.5-2.9-26.999-0.5-40.399z" fill="#333" stroke="#333" stroke-width=".7382"/>
 <path d="m1387.3 570.35c0.9 0 2.7 0 3.6 0.1 1.2 2.9 2.5 5.7 4.1 8.5-2.9 10.4-1.1 21.199-0.7 31.799 0.5 10.8 1.4 21.499 2.1 32.299 0.8 12.1 3.7 23.999 4.1 36.099-0.3 4.7-0.8 9.4-0.5 14.2l-0.3-1c-1.3-10.5-4.4-20.499-6.2-30.799-3.7-30.4-6.8-60.799-6.2-91.198z" fill="#DF511F" stroke="#DF511F" stroke-width=".7382"/>
 <path d="m1395 578.85c3.4 5.3 7 10.6 10.7 15.7-1.1 13.8-1.6 27.699-2.1 41.599-1.4 14.3-1.9 28.599-3 42.899-0.4-12.1-3.3-23.999-4.1-36.099-0.7-10.8-1.6-21.499-2.1-32.299-0.5-10.601-2.3-21.4 0.6-31.8z" fill="#CE471B" stroke="#CE471B" stroke-width=".7382"/>
 <path d="m2045.7 594.65c4.9-1.8 10.7-5.6 15.599-1.9 15.9 10.5 30.899 23.099 41.799 38.799-50.699 20.999-101.3 42.299-153.1 60.098-27.099 9.2-54.699 16.799-82.898 21.499-28.899 4.3-58.098 6.6-87.198 9.3-15.4 0.6-30.799 2-45.999 4 10.2 3.6 21.199 2.8 31.799 3.6 31.999 2.5 64.198 1.1 96.298-0.2 13.2-0.2 26.499-0.6 39.699-1.8 32.199-2 64.398-4.9 96.397-9.5 31.299-4.9 62.598-10.6 93.697-16.9 5.7-1.2 11.5-2 17.3-2.7-0.8 1.8-1.6 3.6-2.3 5.4-27.899 6.7-56.198 11.4-84.198 17.2-85.398 18.599-170.9 39.799-251.29 74.698-8.6 3.9-17.599 7.3-25.399 12.8 13.5-2.1 26.299-6.8 39.499-10.2 58.398-16.4 117-31.999 176-46.299 29.699-7.4 59.798-13.3 89.898-19.399 28.399-5.3 56.598-11.7 84.998-16.6 5.3-1 10.5-2.3 15.699-3.7 3.9 10.3 6.9 20.899 10 31.399 0.4 2.3 0.8 4.6 1.1 7-13.9-0.3-27.799-1.5-41.699-1.2-64.898 0.2-128.8 13.3-191.5 28.999-32.099 7.9-63.998 17.1-95.298 27.899-23.899 8-47.099 17.599-70.998 25.499-30.899 11.3-62.898 18.9-94.198 28.799-7.4 2.3-15 3.8-22.199 6.8 1.5 3.2 4.7 5 7.5 7 9.9 6.5 19.5 13.4 29.099 20.4 19.699 13.8 40.899 25.399 61.798 37.399 48.299 28.799 95.797 59.198 141.2 92.498 29.199 21.899 56.999 45.699 81.998 72.398 2.5 2.8 5.9 4.5 9.5 5.5-6.7 2.8-13.6 5.8-21.099 5.5-12.1 0-24.299-0.3-36.199 2.2-10.9 1.2-21.199 4.9-31.599 8.4-7.9-4.8-13.3-12.5-19.9-18.8-14.9-15.5-31.999-28.499-48.699-41.999-6-5.1-13.4-8.1-19.699-12.8-58.599-44.599-118.9-86.898-177.3-131.6-6.4-4.6-13.4-8.2-20.099-12.5-3-2-6.5-2.8-10-3.4 8.6 10.1 19.699 17.5 29.099 26.799 10.3 9.1 18.9 19.799 28.199 29.799 14.9 16.5 27.999 34.399 41.599 51.899 24.599 33.399 47.599 67.898 70.198 102.6 14.5 23.399 29.199 46.799 41.999 71.298 3.1 6.4 7.9 11.8 13 16.7-1.9 6.6-3 13.4-5.5 19.799-7.8-7.8-16.8-14.4-24.799-21.999-10.1-9.7-20.8-18.8-30.599-28.899-21.099-19.099-40.499-39.699-60.798-59.598-15.8-16.9-31.599-33.699-46.299-51.399-17.9-21.399-34.799-43.699-51.499-65.998-24.799-33.199-50.299-66.298-69.698-103.2-2.3 15.1-0.5 30.599 1.2 45.699 2.7 16.3 4.5 32.699 7.5 48.999 2.2 12.3 3.2 24.899 7.3 36.799 14.2 59.598 33.599 117.9 51.499 176.4 5.2 16.6 9.9 33.399 14.1 50.199 5.1 16 7.4 32.599 10.8 48.999-5 0.7-9.9 1.9-14.8 2.9-0.9-0.1-2.7-0.2-3.6-0.2 2-0.5 4-1 5.9-1.4-13.3-57.198-33.099-112.5-52.899-167.7-23.299-63.398-49.199-126-80.298-186-5.2-9.8-9.6-19.999-13.4-30.399-1.6-4.5-3.9-8.8-6.6-12.8 0.1-1.1 0.2-3.3 0.3-4.3 8.1 0.5 16.3 2.5 24.399 0.9 11.4-2.3 22.199-7.9 30.299-16.2 4.3-3.8 8.5-8.8 14.5-9.5 11 2.3 19.3 11.2 30.399 13.4 13 2.6 26.899 3 39.499-1.7 7.7-2.9 13.5-9 19-14.9 8.2-8.9 16.3-18 22.199-28.599 8.7-15.7 17.3-31.399 24.499-47.899 2.1-0.9 4.2-1.8 6.3-2.6l1.2-0.5c8.5 3.1 14.8 11.1 24.199 11.7 8.5 1 16.9-3.5 21.799-10.3 8.3-11.6 13.3-25.999 12.1-40.299-0.3-7.6-1.5-15.4-0.2-22.999 0.3-4 5-4.1 7.9-5.1 58.599-11.6 114.9-32.299 169.9-55.299 36.799-16.6 74.198-32.099 109.5-51.999 3-1.7 5.3-4.4 7.5-7 0.4-0.2 1.3-0.6 1.8-0.8 7.5-3.298 15.7-5.398 23.3-8.898z" fill="#CF751F" stroke="#CF751F" stroke-width=".7382"/>
 <path d="m1403.7 636.15c0.5-13.9 1-27.699 2.1-41.599 1.2 1.6 2.4 3.1 3.6 4.7-2.4 16.5-1.9 33.099-3.4 49.699-1.1 28.799 0.3 57.598-0.1 86.498 0.3 25.099-1.4 50.299-7.3 74.798-2.1 8.4-4.7 17-10.2 23.799-1.6 1.8-4.4 4.3-6.5 1.8 2.3-4 5-7.9 6.3-12.4 1.7-6.2 3-12.6 4.2-18.9 0.3 1.2 1 3.7 1.4 4.9 10.3-24.299 4.9-51.099 8.2-76.598 0.4-8.1-0.3-16.2 0.6-24.399 0.8-5.2-0.6-10.3-2.4-15.2-0.4-4.7 0.2-9.4 0.5-14.2 1.1-14.299 1.5-28.698 3-42.898z" fill="#A9A9A0" stroke="#A9A9A0" stroke-width=".7382"/>
 <path d="m1516.4 603.25c0.2 3.4 0.7 6.8 1.1 10.2 9.4-2.4 17.799-7.5 27.299-9.6 2.7-0.9 4 2 5.6 3.6 4.2 6.7 7.8 13.9 13.6 19.499 4.7 4.6 11.5 6.1 16.3 10.5 2.5 3.8 1.7 8.8 1.6 13.2-0.8 3.7-2 7.2-3.5 10.7-2.1 3.8-4.2 7.6-6.1 11.5-11 6.8-17.7 18.4-27.999 26.099 1.6-11.6 6.2-22.599 6.6-34.299 1.1-13.3-5.5-25.599-11.6-36.899-2.4-3.5-4.7-8.7-9.6-8.5-1.7 4.5-1.8 9.4-1.9 14.2 0.1 13.4-0.3 26.799-2.5 39.999-1 5.8-3.9 12.7-10.3 13.9-8.2 1.6-14.9-4.6-20.699-9.4 0.6-0.4 1.7-1.1 2.3-1.5-1.4-0.6-2.8-1.2-4.2-1.9 4.7 0.7 9.5 1 14.3 0.4 4.6-0.8 7.4-5 8.9-9.1 1.2-2.6 1-5.6 1.1-8.4-0.301-18-0.801-36.099-0.301-54.199z" fill="#1D1D1F" stroke="#1D1D1F" stroke-width=".7382"/>
 <path d="m1976.6 618.45c14.5-5 29.199-9.6 43.899-14-2.3 2.6-4.5 5.3-7.5 7-35.199 19.9-72.598 35.399-109.5 51.999-54.999 22.899-111.3 43.599-169.9 55.299-2.9 0.9-7.6 1.1-7.9 5.1-1.3 7.6 0 15.4 0.2 22.999 1.2 14.4-3.7 28.799-12.1 40.299-4.9 6.8-13.3 11.3-21.799 10.3-9.4-0.7-15.7-8.6-24.199-11.7 7.6-2.8 15.3-6.3 20.499-12.8 11.2-12.7 13.6-30.499 14.2-46.799 0.2-8.4-1.4-16.8-3.4-24.899-5.9-0.1-11.8-0.1-17.7-0.2 0.2-2.6 0.4-5.2 0.8-7.7 3.4-9.6 3.7-19.799 3.4-29.899 18.599 1.6 37.199 0.6 55.899 0.9 12-0.4 24.099 0.7 35.899-1.9 8.8-1.5 17.8-1.1 26.499-3.4 10.7-2.8 21.899-2.5 32.499-5.6 15.2-4.1 31.199-4.4 46.199-9.2 11-3.4 22.399-5.4 33.299-8.8 12.8-4 25.999-6.3 38.899-10 3.9-1.1 7.9-2.3 11.5-4.3 0.4-0.2 1.3-0.7 1.7-0.9 3-0.699 5.9-1.099 8.6-1.799z" fill="#B26319" stroke="#B26319" stroke-width=".7382"/>
 <path d="m1326.1 610.25c1.1 2.7 2.2 5.4 3.1 8.2 1.5 27.599 8.5 54.999 19.8 80.198 7.3 21.599 21.099 40.199 32.899 59.498-0.8 0-2.5 0.1-3.3 0.2-10.5-13.8-21.199-27.599-28.899-43.099-8.4-16.5-15-33.999-18.799-52.099-3.601-17.499-6.601-35.199-4.801-52.898z" fill="#F8A04F" stroke="#F8A04F" stroke-width=".7382"/>
 <path d="m1419.7 618.85c1.7-0.1 3.4 0.1 5.1 0.3-1.4 7.5-2.3 15.2-3.3 22.799-0.6 4.6 3.2 8.2 3.7 12.6 0.5 4.8 0.1 9.6 0.4 14.4-0.9-1.5-1.7-3-2.6-4.5-0.7 13.4-2.4 26.799-0.8 40.199 0.8 8.1 1.8 17.5 8.7 22.799 3.8 0.2 7.6 0.2 11.4 0.4-1.3 1.5-2.6 3.1-4.1 4.4-4.1 1.7-8.6 1-12.9 1.2-1.4-1.2-2.8-2.5-4.1-3.8-7.5-9.3-6.3-22.099-6-33.299 1.2-17.7 2.4-35.299 2.5-53.099 0.201-8.1 0.201-16.399 2-24.399z" fill="#B9BABA" stroke="#B9BABA" stroke-width=".7382"/>
 <path d="m1529.6 619.15c4.9-0.2 7.2 5 9.6 8.5 6.2 11.3 12.7 23.599 11.6 36.899-0.4 11.7-5 22.699-6.6 34.299 10.4-7.6 17.099-19.299 27.999-26.099-8 19.899-23.899 37.799-44.999 43.799-4.7-3.9-10.5-5.6-16.3-7.1-10.3-2.5-18-10-26.499-15.9 1-7-1.7-15.5 3.9-21.099 1 0.5 2.9 1.5 3.9 2 1.4 0.6 2.8 1.2 4.2 1.9-0.6 0.4-1.7 1.1-2.3 1.5 5.9 4.8 12.5 11 20.699 9.4 6.5-1.2 9.3-8.1 10.3-13.9 2.1-13.2 2.5-26.699 2.5-39.999 0.1-4.701 0.3-9.6 2-14.2z" fill="#353535" stroke="#353535" stroke-width=".7382"/>
 <path d="m1223.6 624.55c2.1 9.6 3.5 19.199 4.7 28.899-3.1-9.2-4.9-19-4.7-28.899z" fill="#8C775B" stroke="#8C775B" stroke-width=".7382"/>
 <path d="m1640.7 630.25c3.8-2.7 7.8-6.7 12.9-5.6 12.4 2.3 23.599 11.1 28.699 22.699-2.3-2.5-4.8-4.7-7.3-7-24.499 13.5-51.799 21.099-78.998 26.999-0.7-3.1-1.3-6.2-2-9.4-0.8 0.2-2.4 0.5-3.2 0.7l0.3-5.7c17.3-5.898 35.099-11.498 49.599-22.698z" fill="#353535" stroke="#353535" stroke-width=".7382"/>
 <path d="m1950 691.65c51.899-17.9 102.5-39.099 153.1-60.098 7.9 11.8 14.199 25.499 13.3 40.099 0.5 9.7-3.3 18.7-7.5 27.199-5.8 0.7-11.6 1.5-17.3 2.7-31.099 6.3-62.298 12.1-93.698 16.9-31.999 4.6-64.098 7.5-96.397 9.5-13.2 1.2-26.499 1.6-39.699 1.8-32.099 1.3-64.198 2.7-96.298 0.2-10.7-0.8-21.599 0-31.799-3.6 15.3-2 30.599-3.4 45.999-4 29.099-2.7 58.198-5 87.198-9.3 28.399-4.501 56.098-12.1 83.098-21.4z" fill="#EBA337" stroke="#EBA337" stroke-width=".7382"/>
 <path d="m1246.6 635.45c2.2 7.8 1.6 15.9 3 23.799 2.1 11.9 4.4 23.799 8.7 35.199 0 1.9-0.1 3.9-0.1 5.8-13-18.699-14.3-42.798-11.6-64.798z" fill="#F89C4C" stroke="#F89C4C" stroke-width=".7382"/>
 <path d="m1581.8 650.65c0.8-3.9 1.5-7.8 2.4-11.6 4.1 3.6 7.2 8.3 7 13.9l-0.3 5.7c-3.6 14.9-11.7 28.199-19.5 41.199-6.7 10-12.8 21.099-23.099 27.799-11.2 7.5-23.899 12.6-36.799 16.4-8.2-1.6-16.9 0.6-24.699-2.7 10.6-3.2 21.799-4.7 31.999-9.1 18.099-6.4 32.999-19.699 44.699-34.699 8.9-12 16.2-25.499 19.3-40.099-1.6 1.3-3.1 2.5-4.6 3.9 1.599-3.5 2.899-7 3.599-10.7z" fill="#C4882F" stroke="#C4882F" stroke-width=".7382"/>
 <path d="m1596.1 667.35c27.199-5.9 54.499-13.5 78.998-26.999 2.5 2.3 4.9 4.6 7.3 7 2.4 4.9 3.1 10.5 3.4 16 0.3 10.1 0 20.299-3.4 29.899-1.4 2.6-2.9 5.3-5 7.4-5.7-0.5-11.1-2.5-16.7-3.1-21.499-2.3-43.299-2.9-64.898-0.1-5.1-0.1-5.8 5.8-7.6 9.4-3.4 10.1-11.2 17.9-18 25.799-2.3 2.8-5.3 5.6-5.7 9.4 4.5 1.7 9.4 1.9 14.2 2.1 21.799 0.8 43.899 8.3 60.198 23.099 4 3.6 8.2 7 12.4 10.4 0.3 0.4 0.9 1.1 1.3 1.5-1.5 0.4-3 0.8-4.5 1.3-8.8 2.4-17.6 7.9-20.799 16.8-4.4-0.4-7.5-3.5-10.1-6.8-8.4-10.1-18.9-18.099-29.199-25.999-8.7-7.1-18.7-12.5-28.699-17.5-8.5 6.4-17.5 12.2-26.899 17.2-7.9 4.3-16.5 6.9-24.599 10.7 9.5 19.599 18.7 39.499 24.999 60.398 2.2 6.3 4.6 12.8 3.9 19.599-3-2.2-6.4-4.7-10.3-3.9-4.9 0.6-8.1 4.7-11 8.2-0.9-0.4-2.8-1.2-3.8-1.6-8.5-25.599-12.4-52.599-12.3-79.598-8.1-0.4-16.7 0.6-24.399-2.6-5.7-3.7-9.2-9.9-13.7-14.8-0.1-2.7-0.1-5.4-0.1-8.1 10.5 0.2 21.199 0.4 31.299-2.9 6.5-1.5 12.9-3.5 19.3-5.6 12.9-3.8 25.599-8.9 36.799-16.4 10.3-6.8 16.4-17.799 23.099-27.799 7.8-13 15.9-26.299 19.5-41.199 0.8-0.2 2.4-0.5 3.2-0.7 0.5 3.301 1.2 6.4 1.8 9.5z" fill="#2B2B2D" stroke="#2B2B2D" stroke-width=".7382"/>
 <path d="m1229 655.85c2.4 5.6 4.2 11.4 5.6 17.4-2.801-5.501-4.6-11.4-5.6-17.4z" fill="#8E7560" stroke="#8E7560" stroke-width=".7382"/>
 <path d="m1578.3 661.35c1.5-1.4 3-2.6 4.6-3.9-3.1 14.7-10.4 28.199-19.299 40.099-11.7 15-26.599 28.199-44.699 34.699-10.3 4.4-21.399 5.9-31.999 9.1 7.9 3.3 16.5 1.1 24.699 2.7-6.3 2.1-12.7 4.1-19.299 5.6-5.7 0.6-11.4 0.9-17 1.2 0.8-0.6 2.3-1.8 3.1-2.4-6.2-5.6-15.5-7.3-20.4-14.3-2.5-3-1.6-7.1-1.5-10.7 3.7 0.5 7.4 0.7 11.1 0.3 2.4-0.7 4.8-1.4 7.2-2 17.5 0.4 35.599 0.5 52.399-5.2 21.099-6 36.999-23.899 44.999-43.799 1.799-3.9 3.899-7.7 6.099-11.399z" fill="#EAA237" stroke="#EAA237" stroke-width=".7382"/>
 <path d="m1328 662.05c0.8 0.2 2.3 0.7 3 0.9 3.8 18.099 10.4 35.599 18.8 52.099 7.7 15.6 18.4 29.399 28.899 43.099 3.1 5.7 7.5 10.5 11.9 15.2 2.7 2.7 2.9 6.7 3.1 10.4-0.6 6.9-1.2 13.8-1.3 20.699-1.2 6.3-2.6 12.7-4.2 18.9-2.2-6.4-7.6-10.7-12.2-15.5-11.8-12-20.099-26.899-27.599-41.799-14.3-32.6-21-68.399-20.4-104z" fill="#CF481C" stroke="#CF481C" stroke-width=".7382"/>
 <path d="m1423 664.45c0.8 1.5 1.7 3 2.6 4.5 1.5 2.7 3.4 5.3 5.4 7.7-2.9 5-1 10.8-0.9 16.2 0.5 11.5-0.2 23.099 0.8 34.599-7-5.4-7.9-14.7-8.7-22.799-1.6-13.401 0-26.801 0.8-40.2z" fill="#ACACA2" stroke="#ACACA2" stroke-width=".7382"/>
 <path d="m1281.5 691.55c0.6-8.8 2.1-17.5 4.1-26.099 0.7 10.9 0.1 21.899 0.7 32.899 2.3 23.299 7.5 46.699 18.3 67.698 3.8 6.9 8.6 13.2 10.7 20.899-10.6-12-16.2-27.299-22.499-41.799-3.7-8.2-5.3-17.2-8.3-25.699l-2-0.4c-1e-3 -9.1-1.701-18.299-1.001-27.499z" fill="#E45722" stroke="#E45722" stroke-width=".7382"/>
 <path d="m1313.4 699.35c1.7-10.5 1.3-21.399 5.3-31.299 1.2 10.2 0.8 20.399 2 30.599 2 22.099 5.6 44.299 14.2 64.998-2.4 1.7-4.8 3.2-7.4 4.5-1.3 2.6-2.6 5.1-4.1 7.6l-0.7-0.1c-2.3-3.3-2.9-7.2-4.1-10.9-4.6-21.5-8.1-43.499-5.2-65.398z" fill="#CF481C" stroke="#CF481C" stroke-width=".7382"/>
 <path d="m1430 692.85c-0.1-5.4-1.9-11.2 0.9-16.2l4.8 2.1c4 1.7 8.3 2.7 12.7 3-0.2 8.9-0.9 17.799-0.5 26.799 0 3.5 1.3 6.8 3.2 9.7-0.8 0.2-2.2 0.6-3 0.8-1.9 5.6-3.6 12.3-9.3 15.3-4.3 2.4-9.4 0.9-13.7-0.8 4.3-0.1 8.8 0.5 12.9-1.2 1.5-1.4 2.7-2.9 4.1-4.4-3.8-0.2-7.6-0.2-11.4-0.4-0.9-11.6-0.2-23.2-0.7-34.699z" fill="#98988F" stroke="#98988F" stroke-width=".7382"/>
 <path d="m1448.4 681.75c4.9 0.2 9.8 0.1 14.7 0.1-1.5 8.7-0.4 17.5 0 26.199 0.2 5.5 2 10.8 4.6 15.7-3.7 0.4-7.5 0.2-11.1-0.3l-3.3-2.7c-0.5-0.6-1.6-1.9-2.1-2.6-2-2.9-3.2-6.2-3.2-9.7-0.4-8.799 0.3-17.699 0.4-26.699z" fill="#ADAEA4" stroke="#ADAEA4" stroke-width=".7382"/>
 <path d="m1399.9 692.15l0.3 1c1.7 4.9 3.1 10 2.4 15.2-0.9 8.1-0.2 16.2-0.6 24.399-3.3 25.399 2.1 52.299-8.2 76.598-0.3-1.2-1-3.7-1.4-4.9 0.1-6.9 0.8-13.8 1.3-20.699 0.5-7 1.3-13.9 1.4-20.899 0.1-3.1 0.2-6.2 0.4-9.3-1.2-0.9-2.4-1.8-3.5-2.7 2.8-10.3 0.3-21.199 3.6-31.399 2.6-9.001 3.6-18.101 4.3-27.3z" fill="#B6B5B2" stroke="#B6B5B2" stroke-width=".7382"/>
 <path d="m1677.4 700.65c2.1-2.2 3.5-4.8 5-7.4-0.4 2.6-0.6 5.2-0.8 7.7 5.9 0 11.8 0.1 17.7 0.2 2 8.1 3.6 16.5 3.4 24.899-8.7 1.2-17.2-1.5-25.399-4.1-14.9-4.8-30.599-5.6-46.099-6.3-13.5-0.7-27.099 0.7-40.299 3.6-11 2-16.699 12.9-22.699 21.199 19.199 1.4 38.899 3.9 55.899 13.4 10.5 6.1 20.599 13.5 27.299 23.799-4.2-3.4-8.4-6.7-12.4-10.4-16.3-14.8-38.399-22.299-60.198-23.099-4.8-0.3-9.6-0.4-14.2-2.1 0.3-3.9 3.4-6.6 5.7-9.4 6.8-7.9 14.6-15.7 18-25.799 1.8-3.6 2.5-9.5 7.6-9.4 21.499-2.8 43.299-2.2 64.898 0.1 5.498 0.601 10.898 2.601 16.598 3.101z" fill="#353535" stroke="#353535" stroke-width=".7382"/>
 <path d="m1474.9 721.85c5-8.7 8.6-18.2 9.6-28.199 8.4 5.9 16.2 13.4 26.499 15.9 5.8 1.4 11.6 3.2 16.3 7.1-16.8 5.699-34.899 5.599-52.399 5.199z" fill="#3E3F3F" stroke="#3E3F3F" stroke-width=".7382"/>
 <path d="m1349 698.55c8.1 12.1 13.2 26.099 22.199 37.599 7.8 9.1 13 20.899 23.999 26.699-0.1 7-0.9 13.9-1.4 20.899-0.2-3.6-0.4-7.6-3.1-10.4-4.4-4.7-8.8-9.5-11.9-15.2 0.8-0.1 2.5-0.2 3.3-0.2-11.998-19.198-25.698-37.798-33.098-59.397z" fill="#E75521" stroke="#E75521" stroke-width=".7382"/>
 <path d="m2106.7 704.35c13.6 0.2 26.699-3.6 40.299-4 1.6 4.1 3.2 8.2 4.8 12.4-5.2 1.5-10.4 2.8-15.699 3.7-28.499 4.8-56.599 11.3-84.998 16.6-29.999 6.1-60.098 12-89.898 19.399-58.898 14.3-117.6 29.899-176 46.299-13.2 3.4-25.999 8.1-39.499 10.2 7.8-5.5 16.8-8.9 25.399-12.8 80.498-34.799 165.9-55.999 251.29-74.698 28.1-5.8 56.399-10.5 84.298-17.1z" fill="#EAA237" stroke="#EAA237" stroke-width=".7382"/>
 <path d="m1590.8 719.25c13.2-2.9 26.799-4.2 40.299-3.6 15.5 0.8 31.199 1.5 46.099 6.3 8.2 2.6 16.7 5.3 25.399 4.1-0.6 16.3-3 34.099-14.2 46.799-5.2 6.5-12.9 10-20.499 12.8l-1.2 0.5c-6.9 0.7-12.1-4.8-18.7-5.8 1.5-0.5 3-0.9 4.5-1.3-0.3-0.4-0.9-1.1-1.3-1.5-6.7-10.3-16.8-17.7-27.299-23.799-17-9.5-36.799-12-55.899-13.4 6.1-8.3 11.8-19.2 22.8-21.1z" fill="#404040" stroke="#404040" stroke-width=".7382"/>
 <path d="m1448.2 719.05c0.7-0.2 2.2-0.6 3-0.8-1.8 5.8-3.7 12-2.1 18 1.3 5.5 5.3 9.9 9.5 13.5 0.1 5.5 0.3 11.1 0.3 16.7-2.5 14.1-8.6 27.099-14.4 39.999-0.4-1.7-0.7-3.4-1-5.1-11-5.1-21.199-11.5-30.499-19.199 2.6-17.2 2.7-34.699 5-51.999 0.8-0.1 2.3-0.4 3.1-0.5 1.3 1.3 2.7 2.6 4.1 3.8 4.3 1.8 9.3 3.2 13.7 0.8 5.699-2.901 7.399-9.601 9.299-15.201z" fill="#D0491C" stroke="#D0491C" stroke-width=".7382"/>
 <path d="m1451.1 718.25c0.5 0.7 1.6 1.9 2.1 2.6-0.8 5.8-2.2 12 0.6 17.5 3 7.1 10.4 10.6 17.4 12.5-4.2-0.2-8.5-0.4-12.7-1.1-4.2-3.6-8.2-7.9-9.5-13.5-1.5-6 0.4-12.2 2.1-18z" fill="#E8A23F" stroke="#E8A23F" stroke-width=".7382"/>
 <path d="m1453.3 720.85l3.3 2.7c-0.1 3.6-1 7.6 1.5 10.7 4.9 7 14.2 8.7 20.399 14.3-0.8 0.6-2.3 1.8-3.1 2.4h-4.1c-7-1.9-14.5-5.4-17.4-12.5-2.899-5.6-1.499-11.8-0.599-17.6z" fill="#ECBA71" stroke="#ECBA71" stroke-width=".7382"/>
 <path d="m2161.8 744.14c4.1 19.2 8.3 38.399 10 57.998 0.1 1 0.2 3 0.3 4 0.9 19.799 1.8 39.799-1.6 59.498 0.6-9.9 1-19.799 0.5-29.699-13.8 21.899-32.199 40.999-53.398 55.899-41.899 30.099-91.698 47.399-142.1 56.399-58.498 10.4-119.2 2.1-174.5-18.5-10.6-3.4-20.4-9-31.199-11.6 6.9 6.6 15.4 11.2 23.099 16.8 33.199 23.499 65.298 48.599 95.698 75.598 11 10.7 22.999 20.4 33.999 31.199 15.7 15 30.799 30.499 45.999 45.999 5 4.8 9.2 11.8 16.699 12.4-2.4 1-4.8 2-7.3 3-3.6-1-7-2.8-9.5-5.5-24.999-26.599-52.799-50.499-81.998-72.398-45.399-33.399-92.898-63.698-141.2-92.498-20.899-12-42.099-23.499-61.798-37.399-9.6-7-19.199-13.9-29.099-20.399-2.8-2-6-3.8-7.5-7 7.2-3 14.8-4.5 22.199-6.8 31.299-9.9 63.398-17.4 94.198-28.799 23.899-8 47.099-17.6 70.998-25.499 31.299-10.8 63.198-19.999 95.297-27.899 62.698-15.7 126.6-28.799 191.5-28.999 13.9-0.3 27.799 0.9 41.699 1.2-0.201-2.401-0.601-4.701-1.001-7.001z" fill="#EBA337" stroke="#EBA337" stroke-width=".7382"/>
 <path d="m1559.2 746.94c10 5 20 10.4 28.699 17.5 10.3 8 20.799 16 29.199 25.999 2.6 3.3 5.7 6.4 10.1 6.8 1.1 17.4-1.4 36.799-14.7 49.499-6.4-7.3-10.3-16.4-16.7-23.699-7.1-8.1-14.7-15.9-24.099-21.299-18.5-11-38.999-18.599-59.798-23.999 4.2 9.9 9.5 19.4 13.3 29.399 5.9 13.8 9.5 28.399 14.3 42.599 1.3 3.2 1.2 6.7-0.1 9.9-1-1.6-1.9-3.2-2.9-4.8 0.6-6.8-1.8-13.3-3.9-19.599-6.3-20.899-15.5-40.799-24.999-60.398 8.1-3.8 16.7-6.4 24.599-10.7 9.499-5.102 18.399-10.902 26.999-17.202z" fill="#353535" stroke="#353535" stroke-width=".7382"/>
 <path d="m1458.6 749.74c4.2 0.7 8.4 0.9 12.7 1.1h4.1c5.7-0.3 11.4-0.7 17-1.2-10.1 3.3-20.799 3.1-31.299 2.9l-1.3 0.1c-0.4 4.6-0.2 9.2-0.9 13.8-2e-3 -5.6-0.202-11.2-0.301-16.7z" fill="#8E5F2F" stroke="#8E5F2F" stroke-width=".7382"/>
 <path d="m1459.8 752.64l1.3-0.1c0 2.7 0 5.4 0.1 8.1 0 1 0.1 3 0.1 4.1 2.7 3.1 6.2 6 6.9 10.3 0.7 6.2-0.5 12.4-1 18.599-1.1 11.2 0.2 22.499-0.7 33.799-0.9 11.7-1.2 23.499-3.1 35.099-0.8 3.4 0.4 6.7 2.6 9.2-2.5-1.1-4.9-2.3-7.3-3.6-6.4-4-11.8-9.3-16.3-15.3-0.4-0.5-1.1-1.5-1.5-2-2.5-3.5-5-7-7.1-10.7-0.9-4.1-3.3-8.5-1.3-12.7 2.8-6.1 6.8-11.6 10-17.5 0.4-0.9 1.3-2.6 1.8-3.5 5.8-12.9 11.9-25.999 14.4-39.999 1-4.598 0.8-9.298 1.1-13.798z" fill="#404040" stroke="#404040" stroke-width=".7382"/>
 <path d="m1461.2 760.64c4.6 4.9 8 11.1 13.7 14.8 7.7 3.2 16.2 2.2 24.399 2.6-0.1 26.899 3.8 53.899 12.3 79.598 0.9 0.4 2.8 1.2 3.8 1.6-2.1 2.5-4.3 5-7.2 6.6-12.5 7.2-27.999 10-41.999 5.9-2.2-2.5-3.5-5.8-2.6-9.2 1.9-11.6 2.1-23.399 3.1-35.099 0.9-11.2-0.4-22.599 0.7-33.799 0.5-6.2 1.7-12.4 1-18.599-0.7-4.3-4.2-7.2-6.9-10.3-0.2-1.001-0.2-3.101-0.3-4.101z" fill="#353535" stroke="#353535" stroke-width=".7382"/>
 <path d="m1334.8 763.54c2 0.8 3.9 1.5 5.8 2.4 0.1 5.1-2.1 9.6-5.3 13.4-4.5 4.2-8.8 9-10.7 15-2.9 8.8-7.7 17.9-5.5 27.499 2.4 11.5 4.4 23.999 12.6 33.099 5.5 6.6 13.8 9.7 20.999 14.1-2.7 0-5.3-0.1-8-0.2-17.5-7.3-26.299-25.799-30.499-43.199-3.4-12.7-1.6-26.099 1.1-38.799 0.7-2.7 1.4-5.4 2-8 2-0.9 5.2-0.7 6-3.2 1.5-2.5 2.8-5 4.1-7.6 2.7-1.3 5.1-2.8 7.4-4.5z" fill="#BABBBD" stroke="#BABBBD" stroke-width=".7382"/>
 <path d="m1512 777.74c20.799 5.4 41.299 13 59.798 23.999 9.4 5.4 17 13.2 24.099 21.299 6.4 7.3 10.2 16.4 16.7 23.699-8.7 9-20.499 14-32.099 17.799-10.7 2.6-21.999 2.3-32.899 1.2-3.8 0-6.3-2.9-8-6 1.4-3.2 1.4-6.7 0.1-9.9-4.8-14.2-8.4-28.799-14.3-42.599-3.899-10.198-9.199-19.598-13.399-29.497z" fill="#404040" stroke="#404040" stroke-width=".7382"/>
 <path d="m1324.6 794.34c1.9-6 6.2-10.8 10.7-15-4.6 11.8-10 23.699-10.6 36.599-0.7 8.7 1.6 17.799 7.3 24.499 10 13.1 28.299 18.4 43.999 13.7 9.3-2.3 16.9-8.2 24.399-13.8-0.4 1.8-0.8 3.5-1.3 5.3-4.1 10-12.9 17.6-22.799 21.499-9.8 4.1-21.399 5.8-31.499 1.7 2.6 0.1 5.3 0.2 8 0.2-7.2-4.4-15.5-7.5-20.999-14.1-8.2-9.1-10.2-21.599-12.6-33.099-2.301-9.598 2.499-18.698 5.399-27.498z" fill="#ACACA2" stroke="#ACACA2" stroke-width=".7382"/>
 <path d="m1627.2 797.24c3.2-9 12-14.5 20.799-16.8 6.6 0.9 11.8 6.4 18.699 5.8-2.1 0.8-4.2 1.7-6.3 2.6-7.2 16.4-15.8 32.199-24.499 47.899-5.9 10.6-14.1 19.7-22.199 28.599-5.5 5.9-11.3 12-19 14.9-12.6 4.8-26.499 4.4-39.499 1.7-11.1-2.1-19.4-11-30.399-13.4-6 0.7-10.3 5.7-14.5 9.5-8.1 8.4-18.9 14-30.299 16.2-8.1 1.6-16.3-0.5-24.399-0.9 0.2-3.5 0.3-7 0.4-10.4 0.6 0.8 1.1 1.6 1.7 2.4 0-5.7 0.5-11.5 1.1-17.1 2.4 1.3 4.8 2.5 7.3 3.6 14 4.1 29.499 1.4 41.999-5.9 2.8-1.6 5.1-4.2 7.2-6.6 2.9-3.5 6.2-7.6 11-8.2 3.9-0.8 7.4 1.6 10.3 3.9 1 1.6 1.9 3.2 2.9 4.8 1.7 3.1 4.2 6 8 6 10.9 1.1 22.199 1.5 32.899-1.2 11.7-3.9 23.499-8.9 32.099-17.799 13.299-12.8 15.799-32.199 14.699-49.599z" fill="#B26319" stroke="#B26319" stroke-width=".7382"/>
 <path d="m1413.1 782.14c9.3 7.7 19.5 14.1 30.499 19.199 0.3 1.7 0.7 3.4 1 5.1-0.4 0.9-1.3 2.6-1.8 3.5-12.1-0.5-20.699-10.2-30.799-15.6 0.4-4.099 0.7-8.199 1.1-12.199z" fill="#E85522" stroke="#E85522" stroke-width=".7382"/>
 <path d="m1345.8 790.14c8.9 16.9 20.5 32.699 35.199 44.999-1.4 1.1-2.8 2.3-4.3 3.4-6.4-2.7-12.8-5.6-19.2-8.2-0.8-1-1.5-1.9-2.2-2.8-8.2-4.4-15.2-10.5-22.099-16.6-2.999-9.399 4.901-17.099 12.6-20.799z" fill="#CF481C" stroke="#CF481C" stroke-width=".7382"/>
 <path d="m1405.9 831.54c3.6-12.1 4.2-24.699 6.1-37.099 10.1 5.4 18.8 15.1 30.799 15.6-3.2 5.9-7.3 11.4-10 17.5-2 4.1 0.3 8.6 1.3 12.7 0 0.6-0.1 1.6-0.1 2.2-3.4 0.3-6.9 0.5-10.3 0.7-5.299-5.001-11.899-7.901-17.799-11.601z" fill="#CF481C" stroke="#CF481C" stroke-width=".7382"/>
 <path d="m1402.5 842.94c1.1-3.8 2.3-7.6 3.4-11.5 5.9 3.8 12.5 6.6 17.7 11.5-4 0.2-8 0.4-11.9 0.4-3.1-0.1-6.2-0.2-9.2-0.4z" fill="#E65622" stroke="#E65622" stroke-width=".7382"/>
 <path d="m2117.6 891.74c21.199-14.9 39.599-33.999 53.399-55.899 0.5 9.9 0.2 19.799-0.5 29.699-2.7 23.199-9.2 45.699-17.8 67.298-8.9 22.399-22 42.899-35.799 62.598-12.5 15.4-25.499 30.399-40.299 43.699-9.1 9.1-19.3 16.699-29.499 24.399-19.199 14.4-40.099 26.499-61.898 36.499-7.6-0.6-11.8-7.6-16.699-12.4-15.2-15.5-30.399-30.999-45.999-45.999-10.9-10.8-22.899-20.499-33.999-31.199-30.499-26.999-62.498-52.199-95.698-75.598-7.7-5.6-16.199-10.1-23.099-16.8 10.8 2.6 20.599 8.2 31.199 11.6 55.399 20.599 116.1 28.899 174.5 18.5 50.499-8.999 100.3-26.298 142.2-56.397z" fill="#FFD66D" stroke="#FFD66D" stroke-width=".7382"/>
 <path d="m1529.6 931.84c-1.7-15.1-3.5-30.499-1.2-45.699 19.4 36.799 44.799 69.898 69.698 103.2 16.7 22.399 33.599 44.599 51.499 65.998 14.7 17.8 30.599 34.599 46.299 51.399 20.299 19.9 39.699 40.599 60.798 59.598 9.8 10.1 20.5 19.199 30.599 28.899 8 7.6 17 14.1 24.799 21.999-3.7 9.2-8 18.4-14.7 25.899-9.8 11-21.099 20.599-33.499 28.599-17.6 10.2-36.299 18.599-55.699 24.599-7.6-7.4-16.4-13.3-24.099-20.599-35.499-31.599-61.498-72.398-81.998-114.9-18.9-39.199-33.399-80.298-47.299-121.5-3.8-10.7-6.7-21.699-11.2-32.099 0.2 3.4 0.3 6.8 0.7 10.3-4-11.9-5.1-24.499-7.3-36.799-2.899-16.197-4.699-32.597-7.398-48.897z" fill="#EBA337" stroke="#EBA337" stroke-width=".7382"/>
 <path d="m1455.3 897.64c2.7 4 4.9 8.2 6.6 12.8 3.8 10.4 8.3 20.599 13.4 30.399 31.199 59.998 56.999 122.6 80.298 186 19.799 55.198 39.599 110.5 52.899 167.7-2 0.4-4 0.9-5.9 1.4 0.9 0.1 2.7 0.2 3.6 0.2-7.2 1.7-14.5 3-21.599 5-17.099 1.1-34.599 2.8-51.499-0.7 4.5 0.3 9 0.2 13.5 0.2-14.8-15.8-28.999-32.299-40.399-50.699-28.699-44.299-44.599-95.697-52.099-147.7-7.6-51.199-8.6-103.4-3.5-154.8 1.3-8.5 1.8-17.099 1.3-25.599 0.699-8 2.499-16 3.399-24.2z" fill="#EBA337" stroke="#EBA337" stroke-width=".7382"/>
 <path d="m1593.5 898.34c3.5 0.5 7 1.4 10 3.4 6.7 4.2 13.7 7.8 20.099 12.5 58.498 44.699 118.8 86.998 177.3 131.6 6.3 4.7 13.7 7.7 19.699 12.8 16.7 13.4 33.799 26.499 48.699 41.999 6.6 6.3 12 14 19.9 18.8-19.599 8.7-38.399 20.699-51.399 38.099-9.3 11.4-15.9 24.799-19.9 38.999l-0.3 1c-5.1-5-9.8-10.3-13-16.7-12.8-24.499-27.499-47.899-41.999-71.298-22.599-34.699-45.599-69.198-70.198-102.6-13.6-17.5-26.699-35.399-41.599-51.899-9.3-10-17.9-20.799-28.199-29.799-9.399-9.4-20.498-16.9-29.098-26.9z" fill="#B2631A" stroke="#B2631A" stroke-width=".7382"/>
 <path d="m1439.4 1025.7c3.7-34.599 6.5-69.398 12.4-103.8 0.5 8.6 0 17.1-1.3 25.599-5.1 51.499-4.1 103.6 3.5 154.8 7.5 51.899 23.399 103.4 52.099 147.7 11.4 18.4 25.599 34.899 40.399 50.699-4.5 0-9 0.1-13.5-0.2-2.2-0.4-4.4-0.8-6.5-1.1-9.5-3.1-19.199-5.8-27.999-10.7-14.5-7.8-27.299-19.099-36.899-32.499-6.3-8.6-9-19-11.8-29.099-3.1-11.7-5.7-23.599-7.7-35.499-1.9-14.6-4.1-29.299-4.5-44.099-1.9-21.199-1-42.499-1.1-63.698-0.2-11.7 1.4-23.399 1.3-35.099 0.5-7.7 1.3-15.3 1.6-23z" fill="#FED56D" stroke="#FED56D" stroke-width=".7382"/>
 <path d="m2132.7 984.74c5.5-4 12.8-3.1 18.8-0.8 10.1 4.1 19.399 11.9 22.8 22.599 2 6.5 4.4 13.6 2.3 20.399-8.7 14.3-18.899 27.799-31.099 39.299-1.4 1.2-2.7 2.5-4 3.8-9.1-6.8-19.3-12-30.199-15 0.4-3.7 0.7-7.4 1.3-11 2.3-8.3 4.1-16.7 5.2-25.199 1-8 3.4-16.4 0.4-24.199 5.098-2.799 9.698-6.499 14.498-9.899z" fill="#51245D" stroke="#51245D" stroke-width=".7382"/>
 <path d="m2076.7 1039.2c14.8-13.3 27.799-28.299 40.299-43.699l1.2-0.8c3 7.9 0.6 16.2-0.4 24.199-1.1 8.5-2.8 16.9-5.2 25.199-0.8 2.8-1.6 5.6-2.2 8.5-10.1-2.6-20.399-4.2-30.599-6.4-0.9-2-1.8-3.9-2.6-5.9l-0.5-1.099z" fill="#BD6CA6" stroke="#BD6CA6" stroke-width=".7382"/>
 <path d="m1543.6 1007.3c4.5 10.4 7.4 21.399 11.2 32.099 13.9 41.199 28.399 82.298 47.299 121.5 20.499 42.499 46.499 83.298 81.998 114.9 7.7 7.2 16.5 13.1 24.099 20.599-17.8 5.5-35.999 10.1-54.499 12-9 0.5-17.9-1.7-25.599-6.2-2.7-2.7-5.3-5.7-7.3-8.9-3.4-16.4-5.6-33.099-10.8-48.999-4.2-16.9-8.9-33.599-14.1-50.199-18-58.598-37.299-116.8-51.499-176.4-0.399-3.599-0.599-6.999-0.799-10.399z" fill="#FED56D" stroke="#FED56D" stroke-width=".7382"/>
 <path d="m2176.6 1027c3.9 11.2 0.8 23.299 2.7 34.899 0 9.4-9.6 14.1-16.2 18.9-3.1-7.6-9.9-12.4-17.599-14.5 12.199-11.5 22.399-24.899 31.099-39.299z" fill="#BE6CA6" stroke="#BE6CA6" stroke-width=".7382"/>
 <path d="m2047.2 1063.6c10.2-7.7 20.499-15.4 29.499-24.399l0.4 1.1c1 7.2-0.7 14.4-0.9 21.499-9.7-1-19.299 1.4-28.999 1.8z" fill="#4E225D" stroke="#4E225D" stroke-width=".7382"/>
 <path d="m2077.2 1040.3c0.8 2 1.7 3.9 2.6 5.9 10.2 2.2 20.5 3.8 30.599 6.4-1 5.1-2.3 10.3-5.6 14.5-9.2-3.2-18.9-4.4-28.499-5.3 0.2-7.201 1.8-14.401 0.9-21.5z" fill="#D86AB7" stroke="#D86AB7" stroke-width=".7382"/>
 <path d="m2110.4 1052.6c0.6-2.9 1.4-5.7 2.2-8.5-0.6 3.6-0.9 7.3-1.3 11 10.9 3 21.099 8.2 30.199 15-3.9 3.6-7.5 7.6-10.7 11.8-7-7.5-16.4-11.9-26.099-14.8 3.4-4.2 4.7-9.4 5.7-14.5z" fill="#693E74" stroke="#693E74" stroke-width=".7382"/>
 <path d="m2179.3 1061.9c0.1-0.6 0.2-1.8 0.3-2.4 1.1 16.1 9.5 30.199 15.199 44.999-6.7 2.3-13.4 4.8-20.299 6.9-6-8.9-11.8-18.099-17.2-27.399 1.9-1 3.8-2 5.7-3.1 6.8-4.9 16.3-9.5 16.3-19z" fill="#50235C" stroke="#50235C" stroke-width=".7382"/>
 <path d="m2141.5 1070.1c1.3-1.3 2.6-2.5 4-3.8 7.7 2.1 14.5 6.9 17.599 14.5-1.9 1.1-3.8 2.1-5.7 3.1-6.8 2.8-14.5 5.3-21.699 2.7-1.7-1.6-3.2-3.2-4.8-4.8 3.201-4.1 6.701-8.1 10.6-11.7z" fill="#D86AB6" stroke="#D86AB6" stroke-width=".7382"/>
 <path d="m2135.7 1086.7c7.2 2.6 14.9 0.1 21.699-2.7 5.4 9.3 11.2 18.4 17.2 27.399l0.6 1c-6.5 0.2-12.8 1.8-19.099 3.4-0.2 0.8-0.6 2.5-0.7 3.3-3.901-12.199-9.901-23.899-19.7-32.399z" fill="#693E74" stroke="#693E74" stroke-width=".7382"/>
 <path d="m2174.6 1111.3c6.8-2 13.5-4.5 20.3-6.9 0.8 2 1.5 4 2.3 6 3.9 11.7 10.2 22.599 12.3 34.899-7.4 4.1-15.699 6.8-24.099 5.2-2.6-0.8-5.1-1.8-7.5-2.7l5.4-0.6c0.4-11.8 0.8-24.099-4.2-35.099-0.9 0.1-2.8 0.2-3.8 0.2l-0.701-1z" fill="#BE6CA6" stroke="#BE6CA6" stroke-width=".7382"/>
 <path d="m2156.1 1115.8c6.3-1.6 12.6-3.2 19.099-3.4 0.9-0.1 2.8-0.2 3.8-0.2 5 11 4.6 23.299 4.2 35.099l-5.4 0.6c-5.9-2.7-12.8-4.6-16.6-10.2-1.3-4.7-2.5-9.4-4.1-14-0.6-1.6-1.1-3.1-1.7-4.6 0.101-0.899 0.501-2.499 0.701-3.299z" fill="#D869B6" stroke="#D869B6" stroke-width=".7382"/>
 <path d="m2161.1 1137.7c3.8 5.6 10.8 7.5 16.599 10.2 2.5 1 5 1.9 7.5 2.7-2-0.2-4-0.3-5.9-0.4-2.3 9.3-4.9 18.5-9 27.199-1.5-0.9-2.9-1.9-4.3-2.8-1.6 3.3-3.3 6.6-5.2 9.7 1.2-3.2 2.3-6.4 3.3-9.7 3.901-12.1 0.401-24.999-2.999-36.899z" fill="#693E74" stroke="#693E74" stroke-width=".7382"/>
 <path d="m2119.3 1142.7c3.3-1.1 7.2-3 10.699-1.1 5.8 3.1 8.5 9.7 9.8 15.8 0.6 3.4 1.6 7.4-1.1 10.2-3.8-6.7-5-14.6-9.6-20.899-0.4 0.1-1.3 0.2-1.7 0.2-3.1 3.9-4.8 8.7-6.3 13.4 0.1-0.8 0.2-2.3 0.2-3.1 0.401-4.901-0.899-9.701-1.999-14.501z" fill="#492A5B" stroke="#492A5B" stroke-width=".7382"/>
 <path d="m2103.8 1158.9c2.7-7.2 8.7-12.7 15.5-16.1 1 4.8 2.3 9.6 2 14.5-1 2.8-2.2 5.5-3.4 8.3-2.2 0.1-4.4 0.2-6.6 0.3 0.4-4.4 0.6-8.8 0.4-13.2-2.7 2.9-5.3 6-7.8 9.1 1e-3 -0.699-0.1-2.199-0.1-2.9z" fill="#D669B5" stroke="#D669B5" stroke-width=".7382"/>
 <path d="m2185.3 1150.6c8.5 1.6 16.8-1.1 24.099-5.2 4.7 15.2-0.5 31.699-8.6 44.799-8.8-3.4-17.8-6.5-26.399-10.4-1.4-0.8-2.7-1.6-4-2.4 4.1-8.7 6.7-17.9 9-27.199 1.901 0.1 3.901 0.3 5.9 0.4z" fill="#50235C" stroke="#50235C" stroke-width=".7382"/>
 <path d="m2103.9 1161.8c2.5-3.1 5.1-6.2 7.8-9.1 0.2 4.4 0 8.8-0.4 13.2-2 1.4-4 2.7-5.9 4.1-0.601-2.7-1.101-5.4-1.5-8.2z" fill="#E796D8" stroke="#E796D8" stroke-width=".7382"/>
 <path d="m2118 1165.6c1.1-2.8 2.3-5.5 3.4-8.3-0.1 0.8-0.2 2.3-0.2 3.1-0.1 1-0.2 3.1-0.3 4.1-0.4 0.5-1.1 1.4-1.5 1.9-2.9 0.5-5.8 0.9-8.6 1.8-2.5 4.7-0.6 10 0.2 14.9l-1.1-0.1-5.4-0.6c0.1 3.6 0.3 7.1 0.8 10.7l0.2 1.3c-2-4-3.2-8.3-3.2-12.7-0.1-7.6-0.7-15.4 1.6-22.799 0 0.7 0 2.2 0.1 2.9 0.4 2.7 0.9 5.5 1.5 8.2 2-1.4 3.9-2.8 5.9-4.1 2.1-0.101 4.3-0.201 6.6-0.301z" fill="#B288BD" stroke="#B288BD" stroke-width=".7382"/>
 <path d="m2119.3 1166.4c0.4-0.5 1.1-1.4 1.5-1.9-0.4 7.4 0.5 15 4.5 21.399-4.6-1.8-9.5-2.5-14.4-2.9-0.8-4.9-2.7-10.2-0.2-14.9 2.7-0.899 5.6-1.299 8.6-1.699z" fill="#4E235C" stroke="#4E235C" stroke-width=".7382"/>
 <path d="m2166.1 1174.7c1.4 0.9 2.8 1.8 4.3 2.8 1.3 0.8 2.6 1.6 4 2.4-3.6 7.6-8.7 14.3-14 20.8-0.7-0.1-2.2-0.4-3-0.5 0-3.8 0.2-7.6 0.4-11.4 1.1-1.4 2.2-2.8 3.1-4.3 1.9-3.3 3.5-6.6 5.2-9.8z" fill="#D76AB7" stroke="#D76AB7" stroke-width=".7382"/>
 <path d="m2174.4 1179.8c8.6 3.9 17.6 7.1 26.399 10.4-8.9 13.7-22.8 23.299-37.199 30.499-5.9-5.2-5.9-13.4-6.1-20.599 0.8 0.1 2.2 0.4 3 0.5 5.2-6.5 10.3-13.2 13.9-20.8z" fill="#BE6DA6" stroke="#BE6DA6" stroke-width=".7382"/>
 <path d="m2104.4 1182.3l5.4 0.6c3 4.5 6 9.2 10.3 12.6 3 2.6 6.7 4.6 9.2 7.8 0.2 1.9 0.4 3.8 0.4 5.8-9.8-2.3-17.4-9.2-24.499-16-0.601-3.6-0.702-7.2-0.801-10.8z" fill="#E69CDA" stroke="#E69CDA" stroke-width=".7382"/>
 <path d="m2109.7 1182.9l1.1 0.1c4.9 0.4 9.8 1.1 14.4 2.9 3.3 2.2 6.6 4.3 10.3 5.9-1.9 5.8-3.8 11.6-5.9 17.3 0-1.9-0.2-3.9-0.4-5.8-2.6-3.2-6.2-5.2-9.2-7.8-4.3-3.4-7.3-8.1-10.3-12.6z" fill="#C36BA9" stroke="#C36BA9" stroke-width=".7382"/>
 <path d="m2135.5 1191.8c7.6 2 15.6 1 22.299-3.2-0.2 3.8-0.4 7.6-0.4 11.4 0.1 7.2 0.2 15.4 6.1 20.599-6.1 2.5-12.6 4.2-19.199 4.5-5-5-12.4-8-15.1-14.9l0.4-1.1c2.1-5.7 4-11.499 5.9-17.299z" fill="#50235C" stroke="#50235C" stroke-width=".7382"/>
 <path d="m2105.2 1193c7.1 6.8 14.6 13.7 24.499 16l-0.4 1.1c-1.1 2.9-2.3 5.7-3.5 8.6-2.4-1.7-4.9-3.3-7.2-5-5-6-9.9-12.3-13.199-19.5l-0.2-1.2z" fill="#D86AB6" stroke="#D86AB6" stroke-width=".7382"/>
 <path d="m2125.8 1218.8c1.2-2.9 2.4-5.7 3.5-8.6 2.7 6.9 10.1 9.9 15.1 14.9-9.4-0.9-20-3.1-25.799-11.3 2.299 1.8 4.799 3.4 7.199 5z" fill="#624070" stroke="#624070" stroke-width=".7382"/>
 <path d="m1606 1296.2c4.9-1 9.8-2.2 14.8-2.9 2.1 3.2 4.6 6.2 7.3 8.9 0.7 0.8 2.2 2.3 2.9 3.1-11.3 1.9-22.799 2.3-34.199 3.4-2.8 0.1-5.7 0.1-8.5 0-1.4-2.5-2.8-5-4-7.6 7.199-1.9 14.499-3.2 21.699-4.9z" fill="#4E215C" stroke="#4E215C" stroke-width=".7382"/>
 <path d="m1628.1 1302.1c7.7 4.5 16.599 6.7 25.599 6.2 1 1.5 2.1 3.1 3.1 4.7l1.2 4.2c-12.5 8-27.099 10.8-41.299 14.1-1.6 0.4-3.1 0.8-4.6 1.2-2-6.9-3.5-14-6.7-20.4-1.3-3.3-5.7-2.7-8.5-3.4 11.4-1.2 22.899-1.5 34.199-3.4-0.799-0.8-2.199-2.4-2.999-3.2z" fill="#BD6CA6" stroke="#BD6CA6" stroke-width=".7382"/>
 <path d="m1584.8 1308.4c0.9 0.1 2.7 0.2 3.6 0.3 2.8 0.1 5.6 0 8.5 0 2.8 0.7 7.2 0.1 8.5 3.4 3.2 6.4 4.7 13.5 6.7 20.4-4.2 1.2-8.4 2.4-12.7 3.5-0.4 0.1-1.3 0.3-1.7 0.3-2.8-9.701-3.8-21.601-12.9-27.9z" fill="#D86AB6" stroke="#D86AB6" stroke-width=".7382"/>
 <path d="m1589.1 1336.3c-2.2-9.1-6.5-18.5-4.2-27.899 9.1 6.3 10 18.099 12.9 27.899-3 0.2-5.9 0.1-8.7 0z" fill="#E493D4" stroke="#E493D4" stroke-width=".7382"/>
 <path d="m1656.9 1313c4.2 5.8 8.3 11.6 12.4 17.4 3.9 5.9 9.3 12 8.8 19.599-1.4 7.7-6.9 13.8-12.2 19.3-4.8-1.7-9.8-2.5-14.9-2.6-11-0.4-21.999-1.6-32.999-2-2.5-9.7-5.9-19.5-5.9-29.599 1.4-1.5 3.1-2.7 4.8-3.8 14.2-3.3 28.799-6 41.299-14.1-0.6-1.401-1-2.801-1.3-4.2z" fill="#50235C" stroke="#50235C" stroke-width=".7382"/>
 <path d="m1612.1 1332.5c1.5-0.4 3.1-0.8 4.6-1.2-1.7 1.1-3.4 2.3-4.8 3.8 0.1 10.1 3.5 19.8 5.9 29.599-4.2-0.3-8.4-0.5-12.6-0.7-2.3-9.3-5.6-18.4-5.9-27.999 4.401-1.1 8.501-2.3 12.8-3.5z" fill="#683D74" stroke="#683D74" stroke-width=".7382"/>
 <path d="m1589.1 1336.3c2.9 0.1 5.7 0.2 8.6 0 0.4-0.1 1.3-0.3 1.7-0.3 0.2 9.6 3.6 18.699 5.9 27.999-2.8 0.2-5.5 0.4-8.2 0.7 2 10.9 1.1 22.899 7.4 32.599 0.9 0.4 2.6 1.1 3.5 1.4 1.2 0.6 2.4 1.3 3.5 2.1-0.5 0.2-1.5 0.7-2 0.9-1.3 3.2-2.6 6.4-5.3 8.6-1.2-5.5-2.3-11.1-4.1-16.5-3.1-9.3-4-19.199-4.8-28.999-0.7-9.6 1.3-20.899-6.2-28.499z" fill="#AF88BB" stroke="#AF88BB" stroke-width=".7382"/>
 <path d="m1506.8 1372.8c7.2-5.3 15-10.3 24.099-11.8-0.1 3.8-0.3 7.6-0.8 11.3-2.4 0.9-4.8 1.8-6.9 3.2-3.1 1.9-5.9 4.2-8.7 6.5-3.499-2.2-7.599-4.6-7.699-9.2z" fill="#DA6AB6" stroke="#DA6AB6" stroke-width=".7382"/>
 <path d="m1531 1361c3.9-0.1 7.7 0 11.6 0.3-4.7 2.5-9 5.7-11.3 10.6l-1.1 0.4c0.4-3.7 0.699-7.5 0.8-11.3z" fill="#733F79" stroke="#733F79" stroke-width=".7382"/>
 <path d="m1542.5 1361.3c2.4 1.5 5.3 3.2 5.9 6.3 1.8 7.2 0.6 14.7 0.1 21.999-1.4-0.1-2.7-0.1-4-0.1-0.9-5.7-2.6-11.2-5.4-16.3-2.6-0.5-5.2-0.9-7.8-1.3 2.2-4.899 6.5-8.099 11.2-10.599z" fill="#4E245D" stroke="#4E245D" stroke-width=".7382"/>
 <path d="m1597 1364.7c2.7-0.3 5.5-0.5 8.2-0.7l0.3 1.3c1.5 11 2 22.199 2.4 33.399-0.9-0.4-2.6-1.1-3.5-1.4-6.3-9.699-5.4-21.699-7.4-32.599z" fill="#E69CDA" stroke="#E69CDA" stroke-width=".7382"/>
 <path d="m1605.3 1364c4.2 0.2 8.4 0.4 12.6 0.7 11 0.4 21.999 1.6 32.999 2 5 0.2 10.1 1 14.9 2.6-13.1 12.8-25.599 26.899-33.299 43.699-6-2.7-11.8-5.8-17-9.6-1-0.8-2-1.5-3.1-2.2 1-0.3 2.9-0.8 3.9-1 2.4-11 2.6-22.299 2.9-33.399-4.6-0.6-9.2-1-13.7-1.5l-0.2-1.3z" fill="#BE6CA6" stroke="#BE6CA6" stroke-width=".7382"/>
 <path d="m1605.5 1365.3c4.6 0.5 9.1 0.9 13.7 1.5-0.3 11.2-0.5 22.499-2.9 33.399-1 0.3-2.9 0.8-3.9 1l-0.9-0.6c-1.2-0.7-2.4-1.4-3.5-2.1-0.501-10.999-0.901-22.199-2.5-33.199z" fill="#D869B5" stroke="#D869B5" stroke-width=".7382"/>
 <path d="m1494.8 1392.2c3.1-7 7.3-13.4 12.1-19.4 0.1 4.6 4.2 7 7.7 9.2 2.8-2.3 5.6-4.6 8.7-6.5-6.1 5.8-12.9 12.5-13.6 21.5-0.6 8.6 0.6 17.199 0.6 25.899l-0.3-1.1c-1.6-5.7-1.7-11.7-1.9-17.599-3.4-1.8-6.8-3.6-10.3-5.1 0.5-2.5 1-5 1.5-7.4-1.6 0.1-3.1 0.3-4.5 0.5z" fill="#693D75" stroke="#693D75" stroke-width=".7382"/>
 <path d="m1494.8 1392.2c1.5-0.2 3-0.4 4.5-0.6-0.5 2.5-1 4.9-1.5 7.4l-1-0.3c-0.6-0.1-1.9-0.3-2.6-0.4-1.1 3.1-2 6.2-2.5 9.4-1.1 6.3-1.6 12.8-1.8 19.199-1.899-11.699 0.101-23.899 4.9-34.699z" fill="#9F77AA" stroke="#9F77AA" stroke-width=".7382"/>
 <path d="m1600 1393.8c1.9 5.4 2.9 10.9 4.1 16.5 2.6-2.3 4-5.5 5.3-8.6 0.5-0.2 1.5-0.7 2-0.9l0.9 0.6c1 0.7 2 1.4 3.1 2.2-5.6 9-9.9 18.9-17.599 26.399 0.1 1.3 0.2 2.6 0.4 3.9-2.5-3-4.6-6.2-6.8-9.4-1.9 0.7-3.8 1.5-5.7 2.4 4.5-3.5 9.9-6.8 12-12.4 2.199-6.799 2.299-13.899 2.299-20.699z" fill="#693D74" stroke="#693D74" stroke-width=".7382"/>
 <path d="m1494.2 1398.3c0.7 0.1 1.9 0.3 2.6 0.4 0.2 9.7-0.3 19.4 1.6 28.899-1.9 1.1-3.8 2.2-5.7 3.4-1.8-7.6-1.5-15.5-0.9-23.299 0.4-3.2 1.3-6.3 2.4-9.4z" fill="#EA9ADA" stroke="#EA9ADA" stroke-width=".7382"/>
 <path d="m1496.8 1398.7l1 0.3c3.5 1.5 6.9 3.4 10.3 5.1 0.2 5.9 0.3 11.9 1.9 17.599l-4 2c-2.3 1.1-4.5 2.2-6.7 3.4l-0.9 0.5c-1.9-9.499-1.4-19.199-1.6-28.899z" fill="#D76AB5" stroke="#D76AB5" stroke-width=".7382"/>
 <path d="m1597.8 1429.9c7.7-7.5 12-17.4 17.599-26.399 5.3 3.9 11.1 6.9 17 9.6-6 12.9-9.1 26.799-12.4 40.599-0.5-2.2-0.1-5.2-2.6-6.2-6.8-4-14.2-7.4-19.2-13.7-0.099-1.4-0.299-2.7-0.399-3.9z" fill="#50235D" stroke="#50235D" stroke-width=".7382"/>
 <path d="m1489.9 1427c0.2-6.4 0.7-12.9 1.8-19.199-0.6 7.7-0.8 15.6 0.9 23.299 2.4 8.7 6.5 16.7 9.9 24.999-1.4 2.2-2.5 4.6-3.3 7.1-3.301-12.099-6.8-23.999-9.3-36.199z" fill="#663E70" stroke="#663E70" stroke-width=".7382"/>
 <path d="m1506 1423.8l4-2 0.3 1.1c1.7 8.4 8.2 14.8 16.2 17.5-6.1 1.3-10.9 5.4-15.8 8.9h-3.1c0-8.601-1.1-17.001-1.6-25.5z" fill="#50235D" stroke="#50235D" stroke-width=".7382"/>
 <path d="m1499.2 1427.2c2.2-1.2 4.5-2.3 6.7-3.4 0.4 8.5 1.5 17 1.6 25.499h3.1c-0.9 0.7-1.9 1.4-2.8 2.1l-1 0.8c-4.4-7.599-7.5-16.099-7.6-24.999z" fill="#693C74" stroke="#693C74" stroke-width=".7382"/>
 <path d="m1585.7 1426.7c1.9-0.9 3.8-1.6 5.7-2.4 2.2 3.2 4.3 6.4 6.8 9.4 5 6.3 12.5 9.7 19.199 13.7 2.5 1 2.1 4 2.6 6.2-2.3 7.6-3.1 15.8-7 22.8-10 2.4-20.499 3.2-29.799 7.8-3-0.7-6.6-1.5-7.1-5.1-3.9-14.5-4.9-29.699-5.3-44.599 5.2-2.101 10.1-4.901 14.9-7.801z" fill="#BE6DA7" stroke="#BE6DA7" stroke-width=".7382"/>
 <path d="m1498.4 1427.7l0.9-0.5c0.1 8.9 3.1 17.4 7.6 24.999-1.5 1.2-2.9 2.5-4.3 3.8-3.4-8.3-7.5-16.3-9.9-24.999 1.901-1.1 3.8-2.3 5.7-3.3z" fill="#B18ABD" stroke="#B18ABD" stroke-width=".7382"/>
 <path d="m1531.6 1441.5c13.4 0.3 27.199-0.5 39.299-6.9 0.4 15 1.4 30.099 5.3 44.599 0.5 3.6 4.2 4.3 7.1 5.1-12.4 3.4-24.899 6.5-37.599 8.6-0.5-12.7-2.9-25.499-1.1-38.199 0.5-4 1-7.9 1.6-11.9-4.901-0.1-9.801-0.4-14.6-1.3z" fill="#50235C" stroke="#50235C" stroke-width=".7382"/>
 <path d="m1510.6 1449.3c4.9-3.5 9.7-7.6 15.8-8.9 1.7 0.4 3.4 0.8 5.1 1.1 4.8 1 9.7 1.2 14.6 1.4-0.6 3.9-1.2 7.9-1.6 11.9-0.4 3.8-0.8 7.7-1.1 11.5-7.8 0.2-16.4 0.8-23.099-3.9-4.4-3.4-7.9-7.7-12.5-11 0.899-0.8 1.899-1.5 2.799-2.1z" fill="#BE6DA6" stroke="#BE6DA6" stroke-width=".7382"/>
 <path d="m1502.6 1456c1.4-1.4 2.8-2.6 4.3-3.8l1-0.8c4.5 3.2 8.1 7.6 12.5 11 6.7 4.6 15.3 4.1 23.099 3.9 0.3-3.9 0.7-7.7 1.1-11.5-1.8 12.7 0.6 25.499 1.1 38.199-10.2 2.3-22.199 1.5-30.399-5.6-7.3-6.5-12.6-15.1-16.1-24.199 0.9-2.6 2-5 3.4-7.2z" fill="#D96AB7" stroke="#D96AB7" stroke-width=".7382"/>
</svg>
